%TF.GenerationSoftware,KiCad,Pcbnew,8.0.1*%
%TF.CreationDate,2024-04-24T14:47:18+09:00*%
%TF.ProjectId,LegionKeys,4c656769-6f6e-44b6-9579-732e6b696361,rev?*%
%TF.SameCoordinates,Original*%
%TF.FileFunction,Profile,NP*%
%FSLAX46Y46*%
G04 Gerber Fmt 4.6, Leading zero omitted, Abs format (unit mm)*
G04 Created by KiCad (PCBNEW 8.0.1) date 2024-04-24 14:47:18*
%MOMM*%
%LPD*%
G01*
G04 APERTURE LIST*
%TA.AperFunction,Profile*%
%ADD10C,0.050000*%
%TD*%
G04 APERTURE END LIST*
D10*
X121880000Y-50000000D02*
G75*
G02*
X123580000Y-48300000I1700000J0D01*
G01*
X121879999Y-54070000D02*
G75*
G02*
X120180001Y-55800018I-1829199J97200D01*
G01*
X121880000Y-50000000D02*
X121880000Y-54070000D01*
X180000000Y-48300000D02*
G75*
G02*
X181700000Y-50000000I0J-1700000D01*
G01*
X210760000Y-133700000D02*
G75*
G02*
X209050000Y-135410000I-1710000J0D01*
G01*
X68760000Y-57500000D02*
G75*
G02*
X70470000Y-55800000I1705000J-5000D01*
G01*
X180000000Y-48300000D02*
X123580000Y-48300000D01*
X210760000Y-57500000D02*
X210760000Y-133700000D01*
X209050000Y-55800000D02*
X183400000Y-55800000D01*
X209050000Y-135410000D02*
X70460000Y-135410000D01*
X68760000Y-133700000D02*
X68760000Y-57500000D01*
X120180000Y-55800000D02*
X70470000Y-55800000D01*
X183400000Y-55800000D02*
G75*
G02*
X181700000Y-54100000I0J1700000D01*
G01*
X209050000Y-55800000D02*
G75*
G02*
X210760000Y-57500000I5000J-1705000D01*
G01*
X181700000Y-54100000D02*
X181700000Y-50000000D01*
X70460000Y-135410000D02*
G75*
G02*
X68760000Y-133700000I5000J1705000D01*
G01*
%TO.C,U1*%
X190374100Y-62815600D02*
X194474100Y-62815600D01*
X194474100Y-67315600D01*
X190374100Y-67315600D01*
X190374100Y-62815600D01*
X198886600Y-62815600D02*
X202986600Y-62815600D01*
X202986600Y-67315600D01*
X198886600Y-67315600D01*
X198886600Y-62815600D01*
%TD*%
M02*
