M48
; DRILL file {KiCad 8.0.1} date 2024-04-24T14:47:21+0900
; FORMAT={-:-/ absolute / inch / decimal}
; #@! TF.CreationDate,2024-04-24T14:47:21+09:00
; #@! TF.GenerationSoftware,Kicad,Pcbnew,8.0.1
; #@! TF.FileFunction,Plated,1,2,PTH
FMAT,2
INCH
; #@! TA.AperFunction,Plated,PTH,ViaDrill
T1C0.0118
; #@! TA.AperFunction,Plated,PTH,ComponentDrill
T2C0.0276
; #@! TA.AperFunction,Plated,PTH,ComponentDrill
T3C0.0295
; #@! TA.AperFunction,Plated,PTH,ComponentDrill
T4C0.0300
; #@! TA.AperFunction,Plated,PTH,ComponentDrill
T5C0.0354
; #@! TA.AperFunction,Plated,PTH,ComponentDrill
T6C0.0394
; #@! TA.AperFunction,Plated,PTH,ComponentDrill
T7C0.0402
; #@! TA.AperFunction,Plated,PTH,ComponentDrill
T8C0.0433
; #@! TA.AperFunction,Plated,PTH,ComponentDrill
T9C0.0472
; #@! TA.AperFunction,Plated,PTH,ComponentDrill
T10C0.0500
; #@! TA.AperFunction,Plated,PTH,ComponentDrill
T11C0.0866
%
G90
G05
T1
X2.7461Y-2.4311
X2.7461Y-2.5492
X2.7461Y-2.6673
X2.7461Y-2.7854
X2.7461Y-2.9035
X2.7461Y-3.0217
X2.7461Y-3.1398
X2.7461Y-3.2579
X2.7461Y-3.376
X2.7461Y-3.4941
X2.7461Y-3.6122
X2.7461Y-3.7303
X2.7461Y-3.8484
X2.7461Y-3.9665
X2.7461Y-4.0846
X2.7461Y-4.2028
X2.7461Y-4.3209
X2.7461Y-4.439
X2.7461Y-4.5571
X2.7461Y-4.6752
X2.7461Y-4.7933
X2.7461Y-4.9114
X2.7461Y-5.0295
X2.7461Y-5.1476
X2.7657Y-2.372
X2.7657Y-2.4902
X2.7657Y-2.6083
X2.7657Y-2.7264
X2.7657Y-2.8445
X2.7657Y-2.9626
X2.7657Y-3.0807
X2.7657Y-3.1988
X2.7657Y-3.3169
X2.7657Y-3.435
X2.7657Y-3.5531
X2.7657Y-3.6713
X2.7657Y-3.7894
X2.7657Y-3.9075
X2.7657Y-4.0256
X2.7657Y-4.1437
X2.7657Y-4.2618
X2.7657Y-4.3799
X2.7657Y-4.498
X2.7657Y-4.6161
X2.7657Y-4.7343
X2.7657Y-4.8524
X2.7657Y-4.9705
X2.7657Y-5.0886
X2.7854Y-2.4311
X2.7854Y-2.5492
X2.7854Y-2.6673
X2.7854Y-2.7854
X2.7854Y-2.9035
X2.7854Y-3.0217
X2.7854Y-3.1398
X2.7854Y-3.2579
X2.7854Y-3.376
X2.7854Y-3.4941
X2.7854Y-3.6122
X2.7854Y-3.7303
X2.7854Y-3.8484
X2.7854Y-3.9665
X2.7854Y-4.0846
X2.7854Y-4.2028
X2.7854Y-4.3209
X2.7854Y-4.439
X2.7854Y-4.5571
X2.7854Y-4.6752
X2.7854Y-4.7933
X2.7854Y-4.9114
X2.7854Y-5.0295
X2.7854Y-5.1476
X2.9232Y-5.2657
X2.9275Y-2.8122
X2.9275Y-3.5445
X2.9275Y-4.3004
X2.9275Y-4.6102
X2.9275Y-5.0484
X2.9291Y-2.2835
X2.9823Y-5.2461
X2.9823Y-5.2854
X3.0413Y-5.2657
X3.1004Y-5.2461
X3.1004Y-5.2854
X3.1323Y-2.6626
X3.1323Y-3.4185
X3.1323Y-4.1587
X3.1401Y-4.9146
X3.1594Y-5.2657
X3.2185Y-5.2461
X3.2185Y-5.2854
X3.2776Y-5.2657
X3.3366Y-5.2461
X3.3366Y-5.2854
X3.3957Y-5.2657
X3.4547Y-5.2461
X3.4547Y-5.2854
X3.5138Y-5.2657
X3.5728Y-5.2461
X3.5728Y-5.2854
X3.6319Y-5.2657
X3.6909Y-5.2461
X3.6909Y-5.2854
X3.6913Y-3.5681
X3.6913Y-4.3083
X3.6913Y-4.5866
X3.6913Y-5.0484
X3.6992Y-2.8043
X3.7008Y-2.3189
X3.75Y-5.2657
X3.8091Y-5.2461
X3.8091Y-5.2854
X3.8681Y-5.2657
X3.8803Y-2.6626
X3.8882Y-3.4185
X3.8882Y-4.1587
X3.8882Y-4.9146
X3.9272Y-5.2461
X3.9272Y-5.2854
X3.9862Y-5.2657
X4.0453Y-5.2461
X4.0453Y-5.2854
X4.1043Y-5.2657
X4.1634Y-5.2461
X4.1634Y-5.2854
X4.2224Y-5.2657
X4.2815Y-5.2461
X4.2815Y-5.2854
X4.3406Y-5.2657
X4.3996Y-5.2461
X4.3996Y-5.2854
X4.4393Y-2.8122
X4.4393Y-3.5524
X4.4393Y-4.3004
X4.4393Y-4.5709
X4.4393Y-5.0484
X4.4488Y-2.3268
X4.4587Y-5.2657
X4.5177Y-5.2461
X4.5177Y-5.2854
X4.5768Y-5.2657
X4.6283Y-2.6626
X4.6358Y-5.2461
X4.6358Y-5.2854
X4.6362Y-3.4185
X4.6362Y-4.1587
X4.6362Y-4.9146
X4.6949Y-5.2657
X4.7539Y-5.2461
X4.7539Y-5.2854
X4.813Y-5.2657
X4.872Y-5.2461
X4.872Y-5.2854
X4.9311Y-5.2657
X4.9902Y-5.2461
X4.9902Y-5.2854
X5.0492Y-5.2657
X5.1083Y-5.2461
X5.1083Y-5.2854
X5.1339Y-1.9606
X5.1339Y-2.2756
X5.1673Y-5.2657
X5.1874Y-3.5524
X5.1874Y-4.3004
X5.1874Y-4.5551
X5.1874Y-5.0484
X5.1952Y-2.8043
X5.2264Y-5.2461
X5.2264Y-5.2854
X5.2854Y-5.2657
X5.3445Y-5.2461
X5.3445Y-5.2854
X5.3465Y-1.9646
X5.3465Y-2.2205
X5.3842Y-2.6626
X5.3842Y-3.4185
X5.3842Y-4.1587
X5.3842Y-4.9146
X5.4035Y-5.2657
X5.4626Y-5.2461
X5.4626Y-5.2854
X5.5217Y-5.2657
X5.5807Y-5.2461
X5.5807Y-5.2854
X5.6398Y-5.2657
X5.6988Y-5.2461
X5.6988Y-5.2854
X5.7579Y-5.2657
X5.7795Y-1.9803
X5.7795Y-2.315
X5.8169Y-5.2461
X5.8169Y-5.2854
X5.8228Y-2.2795
X5.8268Y-4.5197
X5.876Y-5.2657
X5.935Y-5.2461
X5.935Y-5.2854
X5.9354Y-3.5524
X5.9354Y-4.3004
X5.9354Y-4.5394
X5.9354Y-5.0484
X5.9433Y-2.8043
X5.9941Y-5.2657
X6.0531Y-5.2461
X6.0531Y-5.2854
X6.1122Y-5.2657
X6.1323Y-2.6626
X6.1323Y-4.1587
X6.1323Y-4.9146
X6.1401Y-3.4185
X6.1654Y-2.2756
X6.1713Y-5.2461
X6.1713Y-5.2854
X6.2303Y-5.2657
X6.2323Y-2.0118
X6.2894Y-5.2461
X6.2894Y-5.2854
X6.3346Y-2.0354
X6.3484Y-5.2657
X6.4075Y-5.2461
X6.4075Y-5.2854
X6.437Y-2.0591
X6.4665Y-5.2657
X6.5256Y-5.2461
X6.5256Y-5.2854
X6.5846Y-5.2657
X6.5974Y-2.9322
X6.6206Y-4.7133
X6.6398Y-2.8957
X6.6398Y-2.9384
X6.6437Y-5.2461
X6.6437Y-5.2854
X6.6441Y-3.4185
X6.6488Y-4.6992
X6.6834Y-3.5524
X6.6834Y-4.3004
X6.6834Y-4.5236
X6.6834Y-5.0406
X6.687Y-2.6626
X6.6913Y-2.8043
X6.7028Y-5.2657
X6.7618Y-5.2461
X6.7618Y-5.2854
X6.8209Y-5.2657
X6.8799Y-5.2461
X6.8799Y-5.2854
X6.8803Y-2.6626
X6.8803Y-3.4185
X6.8882Y-4.1587
X6.896Y-4.9146
X6.939Y-5.2657
X6.998Y-5.2461
X6.998Y-5.2854
X7.0571Y-5.2657
X7.1161Y-5.2461
X7.1161Y-5.2854
X7.1752Y-5.2657
X7.2343Y-5.2461
X7.2343Y-5.2854
X7.2677Y-3.1417
X7.2717Y-2.3307
X7.2913Y-2.5276
X7.2913Y-3.2362
X7.315Y-2.7244
X7.315Y-3.7795
X7.3386Y-3.1811
X7.3386Y-3.2165
X7.3386Y-3.2638
X7.3386Y-3.5984
X7.3563Y-3.0276
X7.3909Y-3.5326
X7.3918Y-3.6505
X7.4134Y-4.5394
X7.4182Y-3.4057
X7.4191Y-3.509
X7.4225Y-3.7523
X7.4248Y-3.6501
X7.4572Y-3.6511
X7.4961Y-3.4567
X7.5098Y-5.2461
X7.5098Y-5.2854
X7.5394Y-4.9055
X7.5551Y-3.6063
X7.5689Y-5.2657
X7.5787Y-4.6614
X7.5815Y-3.2402
X7.5906Y-3.3504
X7.5927Y-3.5079
X7.6024Y-4.5866
X7.6116Y-3.231
X7.6253Y-3.4094
X7.628Y-5.2461
X7.628Y-5.2854
X7.64Y-3.5206
X7.6446Y-3.2315
X7.649Y-2.8866
X7.6568Y-3.5472
X7.6732Y-4.1575
X7.6804Y-3.5906
X7.6816Y-2.4488
X7.6816Y-2.839
X7.6969Y-4.4803
X7.6969Y-5.2657
X7.6973Y-2.3819
X7.6973Y-2.811
X7.7108Y-3.6547
X7.718Y-3.4087
X7.7446Y-2.4134
X7.7446Y-3.2953
X7.7525Y-3.4049
X7.7544Y-3.7534
X7.7559Y-5.2461
X7.7559Y-5.2854
X7.7574Y-3.6501
X7.7587Y-3.5075
X7.7603Y-2.6732
X7.7678Y-3.2739
X7.7717Y-3.5513
X7.7761Y-2.9606
X7.7844Y-3.4064
X7.7894Y-3.6515
X7.8031Y-3.1693
X7.815Y-5.2657
X7.8181Y-3.3622
X7.8189Y-4.5866
X7.8553Y-3.5433
X7.874Y-5.2461
X7.874Y-5.2854
X7.8819Y-3.3622
X7.896Y-3.5158
X7.896Y-4.4409
X7.9252Y-3.5277
X7.9291Y-4.6992
X7.9331Y-5.2657
X7.9556Y-3.3583
X7.9567Y-4.5433
X7.9587Y-3.2579
X7.9792Y-2.7244
X7.9792Y-2.8701
X7.9921Y-5.2461
X7.9921Y-5.2854
X8.0059Y-3.0866
X8.0138Y-3.2028
X8.0418Y-3.4075
X8.0512Y-5.2657
X8.0517Y-3.6511
X8.0538Y-3.8437
X8.0736Y-3.4059
X8.0748Y-4.7087
X8.0774Y-3.7531
X8.0798Y-3.5084
X8.0822Y-3.6501
X8.1056Y-3.4073
X8.1063Y-3.5513
X8.1102Y-5.2461
X8.1102Y-5.2854
X8.1142Y-3.6515
X8.176Y-3.8437
X8.1902Y-2.9236
X8.2283Y-2.8346
X8.2283Y-2.9528
X8.2283Y-3.0709
X8.2283Y-3.189
X8.2283Y-3.3071
X8.2283Y-3.4252
X8.2283Y-3.5433
X8.2283Y-3.6614
X8.2283Y-3.7795
X8.2283Y-3.8976
X8.2283Y-4.0157
X8.2283Y-4.1339
X8.2283Y-4.252
X8.2283Y-4.3701
X8.2283Y-4.4882
X8.2283Y-4.6063
X8.2283Y-4.7244
X8.2283Y-4.8425
X8.2283Y-4.9606
X8.2283Y-5.0787
X8.248Y-2.7756
X8.248Y-2.8937
X8.248Y-3.0118
X8.248Y-3.1299
X8.248Y-3.248
X8.248Y-3.3661
X8.248Y-3.4843
X8.248Y-3.6024
X8.248Y-3.7205
X8.248Y-3.8386
X8.248Y-3.9567
X8.248Y-4.0748
X8.248Y-4.1929
X8.248Y-4.311
X8.248Y-4.4291
X8.248Y-4.5472
X8.248Y-4.6654
X8.248Y-4.7835
X8.248Y-4.9016
X8.248Y-5.0197
X8.248Y-5.1378
X8.2677Y-2.8346
X8.2677Y-2.9528
X8.2677Y-3.0709
X8.2677Y-3.189
X8.2677Y-3.3071
X8.2677Y-3.4252
X8.2677Y-3.5433
X8.2677Y-3.6614
X8.2677Y-3.7795
X8.2677Y-3.8976
X8.2677Y-4.0157
X8.2677Y-4.1339
X8.2677Y-4.252
X8.2677Y-4.3701
X8.2677Y-4.4882
X8.2677Y-4.6063
X8.2677Y-4.7244
X8.2677Y-4.8425
X8.2677Y-4.9606
X8.2677Y-5.0787
T2
X6.6654Y-2.0531
X6.7441Y-2.0531
X6.8228Y-2.0531
T3
X8.0712Y-3.1272
T4
X8.0712Y-3.2059
T5
X3.1303Y-2.889
X3.1303Y-3.639
X3.1303Y-4.389
X3.1303Y-5.139
X3.3035Y-2.889
X3.3035Y-3.639
X3.3035Y-4.389
X3.3035Y-5.139
X3.8803Y-2.889
X3.8803Y-3.639
X3.8803Y-4.389
X3.8803Y-5.139
X4.0535Y-2.889
X4.0535Y-3.639
X4.0535Y-4.389
X4.0535Y-5.139
X4.6303Y-2.889
X4.6303Y-3.639
X4.6303Y-4.389
X4.6303Y-5.139
X4.8035Y-2.889
X4.8035Y-3.639
X4.8035Y-4.389
X4.8035Y-5.139
X5.3803Y-2.889
X5.3803Y-3.639
X5.3803Y-4.389
X5.3803Y-5.139
X5.5535Y-2.889
X5.5535Y-3.639
X5.5535Y-4.389
X5.5535Y-5.139
X6.1303Y-2.889
X6.1303Y-3.639
X6.1303Y-4.389
X6.1303Y-5.139
X6.2323Y-1.9567
X6.2323Y-2.1299
X6.3035Y-2.889
X6.3035Y-3.639
X6.3035Y-4.389
X6.3035Y-5.139
X6.3346Y-1.9567
X6.3346Y-2.1299
X6.437Y-1.9567
X6.437Y-2.1299
X6.8803Y-2.889
X6.8803Y-3.639
X6.8803Y-4.389
X6.8803Y-5.139
X7.0535Y-2.889
X7.0535Y-3.639
X7.0535Y-4.389
X7.0535Y-5.139
T6
X7.4594Y-3.137
X7.5594Y-3.137
T7
X7.4342Y-2.7102
X7.4362Y-2.5102
X7.4362Y-2.8102
X7.4382Y-2.3102
X7.4382Y-2.6102
X7.4382Y-2.9102
X7.4402Y-2.4102
X8.0442Y-2.7102
X8.0462Y-2.5102
X8.0462Y-2.8102
X8.0482Y-2.3102
X8.0482Y-2.6102
X8.0482Y-2.9102
X8.0502Y-2.4102
T8
X5.0059Y-1.9606
X5.0059Y-2.1378
X5.2618Y-1.9606
X5.2618Y-2.1378
X5.4331Y-1.9606
X5.4331Y-2.1378
X5.689Y-1.9606
X5.689Y-2.1378
X5.8583Y-1.9606
X5.8583Y-2.1378
X6.1142Y-1.9606
X6.1142Y-2.1378
T9
X6.5787Y-2.0531
X6.9094Y-2.0531
T10
X3.0181Y-2.7217
X3.0181Y-3.4717
X3.0181Y-4.2217
X3.0181Y-4.9717
X3.2149Y-2.8043
X3.2149Y-3.5543
X3.2149Y-4.3043
X3.2149Y-5.0543
X3.4118Y-2.7217
X3.4118Y-3.4717
X3.4118Y-4.2217
X3.4118Y-4.9717
X3.7681Y-2.7217
X3.7681Y-3.4717
X3.7681Y-4.2217
X3.7681Y-4.9717
X3.9649Y-2.8043
X3.9649Y-3.5543
X3.9649Y-4.3043
X3.9649Y-5.0543
X4.1618Y-2.7217
X4.1618Y-3.4717
X4.1618Y-4.2217
X4.1618Y-4.9717
X4.5181Y-2.7217
X4.5181Y-3.4717
X4.5181Y-4.2217
X4.5181Y-4.9717
X4.7149Y-2.8043
X4.7149Y-3.5543
X4.7149Y-4.3043
X4.7149Y-5.0543
X4.9118Y-2.7217
X4.9118Y-3.4717
X4.9118Y-4.2217
X4.9118Y-4.9717
X5.2681Y-2.7217
X5.2681Y-3.4717
X5.2681Y-4.2217
X5.2681Y-4.9717
X5.4649Y-2.8043
X5.4649Y-3.5543
X5.4649Y-4.3043
X5.4649Y-5.0543
X5.6618Y-2.7217
X5.6618Y-3.4717
X5.6618Y-4.2217
X5.6618Y-4.9717
X6.0181Y-2.7217
X6.0181Y-3.4717
X6.0181Y-4.2217
X6.0181Y-4.9717
X6.2149Y-2.8043
X6.2149Y-3.5543
X6.2149Y-4.3043
X6.2149Y-5.0543
X6.4118Y-2.7217
X6.4118Y-3.4717
X6.4118Y-4.2217
X6.4118Y-4.9717
X6.7681Y-2.7217
X6.7681Y-3.4717
X6.7681Y-4.2217
X6.7681Y-4.9717
X6.9649Y-2.8043
X6.9649Y-3.5543
X6.9649Y-4.3043
X6.9649Y-5.0543
X7.1618Y-2.7217
X7.1618Y-3.4717
X7.1618Y-4.2217
X7.1618Y-4.9717
T11
X2.774Y-5.2638
X2.7744Y-2.2638
X4.8654Y-1.9697
X7.0866Y-1.9685
X7.3602Y-5.2638
X8.2303Y-2.2638
X8.2303Y-5.2638
M30
