%TF.GenerationSoftware,KiCad,Pcbnew,8.0.1*%
%TF.CreationDate,2024-04-24T14:47:18+09:00*%
%TF.ProjectId,LegionKeys,4c656769-6f6e-44b6-9579-732e6b696361,rev?*%
%TF.SameCoordinates,Original*%
%TF.FileFunction,Soldermask,Bot*%
%TF.FilePolarity,Negative*%
%FSLAX46Y46*%
G04 Gerber Fmt 4.6, Leading zero omitted, Abs format (unit mm)*
G04 Created by KiCad (PCBNEW 8.0.1) date 2024-04-24 14:47:18*
%MOMM*%
%LPD*%
G01*
G04 APERTURE LIST*
G04 Aperture macros list*
%AMRoundRect*
0 Rectangle with rounded corners*
0 $1 Rounding radius*
0 $2 $3 $4 $5 $6 $7 $8 $9 X,Y pos of 4 corners*
0 Add a 4 corners polygon primitive as box body*
4,1,4,$2,$3,$4,$5,$6,$7,$8,$9,$2,$3,0*
0 Add four circle primitives for the rounded corners*
1,1,$1+$1,$2,$3*
1,1,$1+$1,$4,$5*
1,1,$1+$1,$6,$7*
1,1,$1+$1,$8,$9*
0 Add four rect primitives between the rounded corners*
20,1,$1+$1,$2,$3,$4,$5,0*
20,1,$1+$1,$4,$5,$6,$7,0*
20,1,$1+$1,$6,$7,$8,$9,0*
20,1,$1+$1,$8,$9,$2,$3,0*%
%AMFreePoly0*
4,1,6,1.000000,0.000000,0.500000,-0.750000,-0.500000,-0.750000,-0.500000,0.750000,0.500000,0.750000,1.000000,0.000000,1.000000,0.000000,$1*%
%AMFreePoly1*
4,1,6,0.500000,-0.750000,-0.650000,-0.750000,-0.150000,0.000000,-0.650000,0.750000,0.500000,0.750000,0.500000,-0.750000,0.500000,-0.750000,$1*%
G04 Aperture macros list end*
%ADD10C,0.100000*%
%ADD11C,0.150000*%
%ADD12C,0.200000*%
%ADD13C,0.250000*%
%ADD14R,1.600000X1.600000*%
%ADD15C,1.600000*%
%ADD16C,1.701800*%
%ADD17C,0.990600*%
%ADD18C,3.429000*%
%ADD19C,2.032000*%
%ADD20C,1.500000*%
%ADD21C,3.400000*%
%ADD22RoundRect,0.250000X0.625000X-0.350000X0.625000X0.350000X-0.625000X0.350000X-0.625000X-0.350000X0*%
%ADD23C,1.524000*%
%ADD24C,1.000000*%
%ADD25R,1.700000X1.700000*%
%ADD26O,1.700000X1.700000*%
%ADD27C,2.000000*%
%ADD28R,1.500000X1.000000*%
%ADD29FreePoly0,0.000000*%
%ADD30FreePoly1,0.000000*%
G04 APERTURE END LIST*
D10*
X68360000Y-133180000D02*
X210730000Y-133180000D01*
X210730000Y-135380000D01*
X68360000Y-135380000D01*
X68360000Y-133180000D01*
G36*
X68360000Y-133180000D02*
G01*
X210730000Y-133180000D01*
X210730000Y-135380000D01*
X68360000Y-135380000D01*
X68360000Y-133180000D01*
G37*
X210450000Y-60350000D02*
X210750000Y-60350000D01*
X210750000Y-70000000D01*
X210450000Y-70000000D01*
X210450000Y-60350000D01*
G36*
X210450000Y-60350000D02*
G01*
X210750000Y-60350000D01*
X210750000Y-70000000D01*
X210450000Y-70000000D01*
X210450000Y-60350000D01*
G37*
X68780000Y-55780000D02*
X70980000Y-55780000D01*
X70980000Y-135370000D01*
X68780000Y-135370000D01*
X68780000Y-55780000D01*
G36*
X68780000Y-55780000D02*
G01*
X70980000Y-55780000D01*
X70980000Y-135370000D01*
X68780000Y-135370000D01*
X68780000Y-55780000D01*
G37*
X208540000Y-69930000D02*
X210740000Y-69930000D01*
X210740000Y-135380000D01*
X208540000Y-135380000D01*
X208540000Y-69930000D01*
G36*
X208540000Y-69930000D02*
G01*
X210740000Y-69930000D01*
X210740000Y-135380000D01*
X208540000Y-135380000D01*
X208540000Y-69930000D01*
G37*
D11*
G36*
X208806000Y-60121653D02*
G01*
X208094764Y-59953419D01*
X208094764Y-60099085D01*
X208583397Y-60205258D01*
X208094764Y-60334169D01*
X208094764Y-60503429D01*
X208591603Y-60627041D01*
X208094764Y-60735265D01*
X208094764Y-60878538D01*
X208806000Y-60707397D01*
X208806000Y-60556430D01*
X208274283Y-60415893D01*
X208806000Y-60276039D01*
X208806000Y-60121653D01*
G37*
G36*
X208215127Y-60937009D02*
G01*
X208094764Y-60937009D01*
X208094764Y-61072247D01*
X208215127Y-61072247D01*
X208215127Y-60937009D01*
G37*
G36*
X208806000Y-60937009D02*
G01*
X208291722Y-60937009D01*
X208291722Y-61072247D01*
X208806000Y-61072247D01*
X208806000Y-60937009D01*
G37*
G36*
X208806000Y-61338618D02*
G01*
X208806000Y-61203551D01*
X208291722Y-61203551D01*
X208291722Y-61329043D01*
X208364384Y-61329043D01*
X208335676Y-61348498D01*
X208308690Y-61371892D01*
X208296851Y-61386831D01*
X208283432Y-61419960D01*
X208280780Y-61445474D01*
X208284675Y-61479615D01*
X208296359Y-61512793D01*
X208308477Y-61534378D01*
X208434311Y-61492491D01*
X208418357Y-61461523D01*
X208412085Y-61429061D01*
X208418711Y-61395492D01*
X208427472Y-61380847D01*
X208456390Y-61359543D01*
X208483037Y-61349902D01*
X208520946Y-61343477D01*
X208555904Y-61340778D01*
X208592576Y-61339323D01*
X208627864Y-61338717D01*
X208651101Y-61338618D01*
X208806000Y-61338618D01*
G37*
G36*
X208591514Y-61552565D02*
G01*
X208627662Y-61557884D01*
X208661237Y-61566750D01*
X208697157Y-61581575D01*
X208729576Y-61601228D01*
X208754745Y-61622904D01*
X208779316Y-61653391D01*
X208797745Y-61688757D01*
X208808410Y-61721958D01*
X208814809Y-61758548D01*
X208816942Y-61798527D01*
X208815207Y-61833978D01*
X208808977Y-61871188D01*
X208798217Y-61904872D01*
X208780696Y-61938551D01*
X208765874Y-61958523D01*
X208739267Y-61984513D01*
X208707414Y-62005743D01*
X208674695Y-62020617D01*
X208652810Y-61885893D01*
X208676044Y-61876067D01*
X208702905Y-61853066D01*
X208712978Y-61833899D01*
X208718463Y-61799895D01*
X208717249Y-61782933D01*
X208706288Y-61749893D01*
X208683927Y-61721933D01*
X208656911Y-61703958D01*
X208623349Y-61693054D01*
X208587158Y-61689277D01*
X208587158Y-62027798D01*
X208577512Y-62027912D01*
X208540496Y-62027024D01*
X208497749Y-62022886D01*
X208458918Y-62015383D01*
X208424002Y-62004517D01*
X208387271Y-61987036D01*
X208356177Y-61964710D01*
X208342703Y-61951946D01*
X208319730Y-61923884D01*
X208302059Y-61892444D01*
X208289689Y-61857626D01*
X208282620Y-61819431D01*
X208281210Y-61793056D01*
X208379258Y-61793056D01*
X208379529Y-61800704D01*
X208388996Y-61835654D01*
X208410033Y-61863325D01*
X208431932Y-61878695D01*
X208465527Y-61890043D01*
X208499621Y-61893586D01*
X208499621Y-61691671D01*
X208476416Y-61692854D01*
X208441774Y-61701429D01*
X208411572Y-61720052D01*
X208403998Y-61727513D01*
X208385443Y-61757372D01*
X208379258Y-61793056D01*
X208281210Y-61793056D01*
X208280780Y-61785020D01*
X208281062Y-61772463D01*
X208285300Y-61736444D01*
X208294622Y-61702900D01*
X208309030Y-61671833D01*
X208328522Y-61643242D01*
X208353100Y-61617128D01*
X208372003Y-61601580D01*
X208403603Y-61582146D01*
X208439098Y-61567376D01*
X208478488Y-61557270D01*
X208514288Y-61552411D01*
X208552793Y-61550792D01*
X208591514Y-61552565D01*
G37*
G36*
X208806000Y-62135167D02*
G01*
X208094764Y-62135167D01*
X208094764Y-62270404D01*
X208806000Y-62270404D01*
X208806000Y-62135167D01*
G37*
G36*
X208591514Y-62369801D02*
G01*
X208627662Y-62375121D01*
X208661237Y-62383986D01*
X208697157Y-62398812D01*
X208729576Y-62418464D01*
X208754745Y-62440141D01*
X208779316Y-62470627D01*
X208797745Y-62505994D01*
X208808410Y-62539194D01*
X208814809Y-62575784D01*
X208816942Y-62615764D01*
X208815207Y-62651215D01*
X208808977Y-62688425D01*
X208798217Y-62722109D01*
X208780696Y-62755788D01*
X208765874Y-62775759D01*
X208739267Y-62801750D01*
X208707414Y-62822979D01*
X208674695Y-62837854D01*
X208652810Y-62703129D01*
X208676044Y-62693304D01*
X208702905Y-62670303D01*
X208712978Y-62651135D01*
X208718463Y-62617131D01*
X208717249Y-62600169D01*
X208706288Y-62567130D01*
X208683927Y-62539169D01*
X208656911Y-62521194D01*
X208623349Y-62510291D01*
X208587158Y-62506514D01*
X208587158Y-62845034D01*
X208577512Y-62845149D01*
X208540496Y-62844261D01*
X208497749Y-62840122D01*
X208458918Y-62832620D01*
X208424002Y-62821753D01*
X208387271Y-62804272D01*
X208356177Y-62781946D01*
X208342703Y-62769182D01*
X208319730Y-62741121D01*
X208302059Y-62709681D01*
X208289689Y-62674863D01*
X208282620Y-62636667D01*
X208281210Y-62610293D01*
X208379258Y-62610293D01*
X208379529Y-62617941D01*
X208388996Y-62652890D01*
X208410033Y-62680561D01*
X208431932Y-62695932D01*
X208465527Y-62707280D01*
X208499621Y-62710823D01*
X208499621Y-62508907D01*
X208476416Y-62510090D01*
X208441774Y-62518665D01*
X208411572Y-62537288D01*
X208403998Y-62544750D01*
X208385443Y-62574609D01*
X208379258Y-62610293D01*
X208281210Y-62610293D01*
X208280780Y-62602257D01*
X208281062Y-62589700D01*
X208285300Y-62553680D01*
X208294622Y-62520137D01*
X208309030Y-62489070D01*
X208328522Y-62460479D01*
X208353100Y-62434364D01*
X208372003Y-62418817D01*
X208403603Y-62399382D01*
X208439098Y-62384612D01*
X208478488Y-62374506D01*
X208514288Y-62369648D01*
X208552793Y-62368028D01*
X208591514Y-62369801D01*
G37*
G36*
X208663752Y-62904874D02*
G01*
X208641868Y-63040453D01*
X208674951Y-63053575D01*
X208698972Y-63075502D01*
X208713590Y-63107302D01*
X208718387Y-63143823D01*
X208718463Y-63149703D01*
X208715746Y-63185310D01*
X208704709Y-63219608D01*
X208699143Y-63228520D01*
X208668606Y-63246023D01*
X208663069Y-63246301D01*
X208637594Y-63236727D01*
X208622939Y-63203743D01*
X208619813Y-63191420D01*
X208610891Y-63152428D01*
X208602161Y-63117176D01*
X208591518Y-63078370D01*
X208581177Y-63045409D01*
X208567203Y-63009079D01*
X208553819Y-62984204D01*
X208531016Y-62957725D01*
X208500509Y-62936979D01*
X208464862Y-62925808D01*
X208438243Y-62923681D01*
X208402427Y-62927819D01*
X208369992Y-62940234D01*
X208340938Y-62960926D01*
X208326258Y-62975997D01*
X208306361Y-63005842D01*
X208293615Y-63037865D01*
X208285221Y-63075401D01*
X208281490Y-63111964D01*
X208280780Y-63138590D01*
X208282042Y-63175998D01*
X208286705Y-63214855D01*
X208294805Y-63248558D01*
X208308268Y-63280765D01*
X208316683Y-63294344D01*
X208339611Y-63320570D01*
X208368002Y-63341738D01*
X208401857Y-63357848D01*
X208423027Y-63364612D01*
X208444911Y-63237069D01*
X208412392Y-63222140D01*
X208396184Y-63205952D01*
X208382498Y-63174204D01*
X208379258Y-63140983D01*
X208381350Y-63105232D01*
X208390647Y-63070803D01*
X208394133Y-63064560D01*
X208421659Y-63049173D01*
X208446108Y-63062679D01*
X208460053Y-63095834D01*
X208469932Y-63130178D01*
X208479715Y-63169415D01*
X208484234Y-63188855D01*
X208493799Y-63227027D01*
X208504157Y-63260630D01*
X208517245Y-63294061D01*
X208533524Y-63324654D01*
X208544415Y-63339651D01*
X208572611Y-63363693D01*
X208607594Y-63377756D01*
X208645288Y-63381880D01*
X208683272Y-63377241D01*
X208718173Y-63363325D01*
X208746607Y-63343167D01*
X208766334Y-63323237D01*
X208786053Y-63294890D01*
X208800929Y-63261159D01*
X208809825Y-63227962D01*
X208815162Y-63190810D01*
X208816942Y-63149703D01*
X208815493Y-63112062D01*
X208811147Y-63077487D01*
X208802416Y-63041023D01*
X208789741Y-63008732D01*
X208775738Y-62984375D01*
X208753287Y-62956646D01*
X208727140Y-62934153D01*
X208697295Y-62916895D01*
X208663752Y-62904874D01*
G37*
G36*
X208663752Y-63449926D02*
G01*
X208641868Y-63585505D01*
X208674951Y-63598627D01*
X208698972Y-63620554D01*
X208713590Y-63652355D01*
X208718387Y-63688875D01*
X208718463Y-63694755D01*
X208715746Y-63730362D01*
X208704709Y-63764661D01*
X208699143Y-63773572D01*
X208668606Y-63791075D01*
X208663069Y-63791353D01*
X208637594Y-63781779D01*
X208622939Y-63748796D01*
X208619813Y-63736472D01*
X208610891Y-63697480D01*
X208602161Y-63662228D01*
X208591518Y-63623423D01*
X208581177Y-63590461D01*
X208567203Y-63554132D01*
X208553819Y-63529256D01*
X208531016Y-63502777D01*
X208500509Y-63482032D01*
X208464862Y-63470861D01*
X208438243Y-63468733D01*
X208402427Y-63472871D01*
X208369992Y-63485286D01*
X208340938Y-63505978D01*
X208326258Y-63521050D01*
X208306361Y-63550895D01*
X208293615Y-63582917D01*
X208285221Y-63620453D01*
X208281490Y-63657016D01*
X208280780Y-63683642D01*
X208282042Y-63721051D01*
X208286705Y-63759908D01*
X208294805Y-63793611D01*
X208308268Y-63825817D01*
X208316683Y-63839396D01*
X208339611Y-63865622D01*
X208368002Y-63886790D01*
X208401857Y-63902900D01*
X208423027Y-63909665D01*
X208444911Y-63782121D01*
X208412392Y-63767192D01*
X208396184Y-63751004D01*
X208382498Y-63719256D01*
X208379258Y-63686036D01*
X208381350Y-63650284D01*
X208390647Y-63615855D01*
X208394133Y-63609612D01*
X208421659Y-63594225D01*
X208446108Y-63607732D01*
X208460053Y-63640886D01*
X208469932Y-63675230D01*
X208479715Y-63714467D01*
X208484234Y-63733907D01*
X208493799Y-63772079D01*
X208504157Y-63805683D01*
X208517245Y-63839113D01*
X208533524Y-63869706D01*
X208544415Y-63884703D01*
X208572611Y-63908746D01*
X208607594Y-63922809D01*
X208645288Y-63926933D01*
X208683272Y-63922294D01*
X208718173Y-63908378D01*
X208746607Y-63888219D01*
X208766334Y-63868290D01*
X208786053Y-63839942D01*
X208800929Y-63806211D01*
X208809825Y-63773014D01*
X208815162Y-63735862D01*
X208816942Y-63694755D01*
X208815493Y-63657114D01*
X208811147Y-63622539D01*
X208802416Y-63586076D01*
X208789741Y-63553784D01*
X208775738Y-63529427D01*
X208753287Y-63501698D01*
X208727140Y-63479205D01*
X208697295Y-63461948D01*
X208663752Y-63449926D01*
G37*
G36*
X208806000Y-64317599D02*
G01*
X208094764Y-64317599D01*
X208094764Y-64460017D01*
X208409178Y-64460017D01*
X208094764Y-64747588D01*
X208094764Y-64938904D01*
X208371736Y-64673558D01*
X208806000Y-64953265D01*
X208806000Y-64769131D01*
X208474831Y-64575422D01*
X208592116Y-64460017D01*
X208806000Y-64460017D01*
X208806000Y-64317599D01*
G37*
G36*
X208591514Y-64984274D02*
G01*
X208627662Y-64989594D01*
X208661237Y-64998460D01*
X208697157Y-65013285D01*
X208729576Y-65032937D01*
X208754745Y-65054614D01*
X208779316Y-65085100D01*
X208797745Y-65120467D01*
X208808410Y-65153668D01*
X208814809Y-65190258D01*
X208816942Y-65230237D01*
X208815207Y-65265688D01*
X208808977Y-65302898D01*
X208798217Y-65336582D01*
X208780696Y-65370261D01*
X208765874Y-65390233D01*
X208739267Y-65416223D01*
X208707414Y-65437452D01*
X208674695Y-65452327D01*
X208652810Y-65317602D01*
X208676044Y-65307777D01*
X208702905Y-65284776D01*
X208712978Y-65265608D01*
X208718463Y-65231605D01*
X208717249Y-65214642D01*
X208706288Y-65181603D01*
X208683927Y-65153642D01*
X208656911Y-65135667D01*
X208623349Y-65124764D01*
X208587158Y-65120987D01*
X208587158Y-65459508D01*
X208577512Y-65459622D01*
X208540496Y-65458734D01*
X208497749Y-65454595D01*
X208458918Y-65447093D01*
X208424002Y-65436226D01*
X208387271Y-65418745D01*
X208356177Y-65396420D01*
X208342703Y-65383655D01*
X208319730Y-65355594D01*
X208302059Y-65324154D01*
X208289689Y-65289336D01*
X208282620Y-65251140D01*
X208281210Y-65224766D01*
X208379258Y-65224766D01*
X208379529Y-65232414D01*
X208388996Y-65267363D01*
X208410033Y-65295034D01*
X208431932Y-65310405D01*
X208465527Y-65321753D01*
X208499621Y-65325296D01*
X208499621Y-65123381D01*
X208476416Y-65124563D01*
X208441774Y-65133138D01*
X208411572Y-65151762D01*
X208403998Y-65159223D01*
X208385443Y-65189082D01*
X208379258Y-65224766D01*
X208281210Y-65224766D01*
X208280780Y-65216730D01*
X208281062Y-65204173D01*
X208285300Y-65168153D01*
X208294622Y-65134610D01*
X208309030Y-65103543D01*
X208328522Y-65074952D01*
X208353100Y-65048838D01*
X208372003Y-65033290D01*
X208403603Y-65013856D01*
X208439098Y-64999085D01*
X208478488Y-64988979D01*
X208514288Y-64984121D01*
X208552793Y-64982501D01*
X208591514Y-64984274D01*
G37*
G36*
X208291722Y-65502934D02*
G01*
X208291722Y-65646720D01*
X208655888Y-65768963D01*
X208291722Y-65888129D01*
X208291722Y-66028154D01*
X208787364Y-65847780D01*
X208882081Y-65815638D01*
X208913591Y-65801445D01*
X208944662Y-65783651D01*
X208947563Y-65781615D01*
X208973502Y-65758460D01*
X208984150Y-65744685D01*
X208999900Y-65713112D01*
X209006034Y-65693224D01*
X209012171Y-65658488D01*
X209013899Y-65624152D01*
X209012246Y-65587945D01*
X209007287Y-65552414D01*
X209006376Y-65547728D01*
X208908411Y-65535760D01*
X208914079Y-65569534D01*
X208915420Y-65593035D01*
X208910313Y-65627201D01*
X208891728Y-65656596D01*
X208884475Y-65662620D01*
X208854307Y-65680455D01*
X208820493Y-65693324D01*
X208806000Y-65697327D01*
X208291722Y-65502934D01*
G37*
G36*
X208806000Y-66231779D02*
G01*
X208730944Y-66231779D01*
X208751065Y-66247904D01*
X208776237Y-66274855D01*
X208795399Y-66305125D01*
X208802720Y-66321132D01*
X208813386Y-66356101D01*
X208816942Y-66391465D01*
X208815209Y-66418596D01*
X208806964Y-66454393D01*
X208791928Y-66487636D01*
X208770102Y-66518327D01*
X208745989Y-66542602D01*
X208722294Y-66560531D01*
X208689980Y-66578034D01*
X208653435Y-66591161D01*
X208619749Y-66598758D01*
X208583124Y-66603316D01*
X208543561Y-66604836D01*
X208520262Y-66604299D01*
X208483742Y-66601021D01*
X208443731Y-66593153D01*
X208407880Y-66580993D01*
X208376188Y-66564542D01*
X208348655Y-66543799D01*
X208332747Y-66528035D01*
X208310011Y-66498018D01*
X208293771Y-66464909D01*
X208284028Y-66428708D01*
X208280780Y-66389413D01*
X208282516Y-66363259D01*
X208284876Y-66353339D01*
X208379258Y-66353339D01*
X208381206Y-66374171D01*
X208395153Y-66408303D01*
X208419949Y-66434549D01*
X208443404Y-66448462D01*
X208477429Y-66459362D01*
X208514463Y-66464828D01*
X208552109Y-66466350D01*
X208572933Y-66465858D01*
X208610268Y-66461926D01*
X208645399Y-66452802D01*
X208678456Y-66434891D01*
X208692052Y-66422626D01*
X208711860Y-66392833D01*
X208718463Y-66358639D01*
X208718242Y-66351462D01*
X208709151Y-66315189D01*
X208689316Y-66286912D01*
X208662043Y-66265289D01*
X208642545Y-66255563D01*
X208607509Y-66245812D01*
X208573398Y-66241522D01*
X208539115Y-66240327D01*
X208519585Y-66240830D01*
X208484386Y-66244848D01*
X208450944Y-66254170D01*
X208418923Y-66272470D01*
X208403468Y-66287384D01*
X208384836Y-66319206D01*
X208379258Y-66353339D01*
X208284876Y-66353339D01*
X208290781Y-66328521D01*
X208305853Y-66295977D01*
X208327732Y-66265624D01*
X208351903Y-66241353D01*
X208094764Y-66241353D01*
X208094764Y-66106287D01*
X208806000Y-66106287D01*
X208806000Y-66231779D01*
G37*
G36*
X208552624Y-66679337D02*
G01*
X208589277Y-66681831D01*
X208623361Y-66687500D01*
X208659168Y-66697865D01*
X208691621Y-66712376D01*
X208713662Y-66725884D01*
X208742824Y-66750158D01*
X208767307Y-66779246D01*
X208785141Y-66809145D01*
X208799054Y-66841437D01*
X208808991Y-66874541D01*
X208814954Y-66908457D01*
X208816942Y-66943185D01*
X208816642Y-66957203D01*
X208812154Y-66997447D01*
X208802281Y-67034973D01*
X208787022Y-67069783D01*
X208766377Y-67101876D01*
X208740347Y-67131252D01*
X208725637Y-67144635D01*
X208694125Y-67167451D01*
X208659824Y-67185002D01*
X208622734Y-67197288D01*
X208582856Y-67204309D01*
X208547493Y-67206137D01*
X208526174Y-67205486D01*
X208492205Y-67201510D01*
X208454022Y-67191967D01*
X208418651Y-67177219D01*
X208386093Y-67157266D01*
X208356348Y-67132107D01*
X208342843Y-67117858D01*
X208319819Y-67087152D01*
X208302107Y-67053500D01*
X208289709Y-67016903D01*
X208282625Y-66977361D01*
X208280807Y-66942672D01*
X208379258Y-66942672D01*
X208382721Y-66971037D01*
X208398108Y-67004648D01*
X208423027Y-67031235D01*
X208443900Y-67045224D01*
X208476027Y-67058162D01*
X208509580Y-67064894D01*
X208547835Y-67067138D01*
X208572890Y-67066262D01*
X208608967Y-67061213D01*
X208643653Y-67050168D01*
X208674866Y-67031235D01*
X208695940Y-67009783D01*
X208713311Y-66976972D01*
X208718463Y-66942672D01*
X208715014Y-66914281D01*
X208699687Y-66880549D01*
X208674866Y-66853768D01*
X208653876Y-66839711D01*
X208621480Y-66826712D01*
X208587575Y-66819948D01*
X208548861Y-66817693D01*
X208524105Y-66818574D01*
X208488420Y-66823647D01*
X208454048Y-66834744D01*
X208423027Y-66853768D01*
X208401869Y-66875385D01*
X208384430Y-66908332D01*
X208379258Y-66942672D01*
X208280807Y-66942672D01*
X208280780Y-66942159D01*
X208282863Y-66905593D01*
X208289114Y-66870779D01*
X208299533Y-66837718D01*
X208314119Y-66806409D01*
X208327673Y-66784558D01*
X208351948Y-66755434D01*
X208380957Y-66730691D01*
X208410717Y-66712376D01*
X208434595Y-66701104D01*
X208466919Y-66689702D01*
X208503948Y-66681831D01*
X208541680Y-66679207D01*
X208552624Y-66679337D01*
G37*
G36*
X208679848Y-67273868D02*
G01*
X208713809Y-67280663D01*
X208747262Y-67296651D01*
X208773515Y-67318635D01*
X208788273Y-67336862D01*
X208804686Y-67368596D01*
X208814227Y-67405606D01*
X208816942Y-67442930D01*
X208816335Y-67459536D01*
X208810854Y-67494195D01*
X208799674Y-67527048D01*
X208791284Y-67544097D01*
X208771277Y-67574545D01*
X208747699Y-67601249D01*
X208764283Y-67606036D01*
X208772604Y-67608382D01*
X208806000Y-67619030D01*
X208806000Y-67752557D01*
X208803707Y-67751457D01*
X208770395Y-67737597D01*
X208737099Y-67728279D01*
X208707991Y-67724320D01*
X208672523Y-67722296D01*
X208637252Y-67721782D01*
X208478592Y-67723321D01*
X208462475Y-67723162D01*
X208424271Y-67721180D01*
X208389594Y-67716242D01*
X208357032Y-67705198D01*
X208345003Y-67697541D01*
X208320113Y-67672474D01*
X208302322Y-67642965D01*
X208292897Y-67618014D01*
X208285513Y-67583022D01*
X208281811Y-67545764D01*
X208280780Y-67508412D01*
X208280916Y-67496165D01*
X208282960Y-67461716D01*
X208288443Y-67425870D01*
X208298798Y-67390635D01*
X208315658Y-67358300D01*
X208330059Y-67340433D01*
X208356620Y-67317553D01*
X208389132Y-67299380D01*
X208423027Y-67287177D01*
X208444911Y-67409762D01*
X208420572Y-67420205D01*
X208393791Y-67442418D01*
X208383857Y-67463230D01*
X208379258Y-67498838D01*
X208379275Y-67502138D01*
X208382498Y-67538967D01*
X208396184Y-67571329D01*
X208418838Y-67585819D01*
X208452946Y-67590648D01*
X208466795Y-67590648D01*
X208565274Y-67590648D01*
X208590748Y-67590648D01*
X208618969Y-67590022D01*
X208653323Y-67585348D01*
X208670987Y-67577222D01*
X208695724Y-67553206D01*
X208697123Y-67551130D01*
X208712778Y-67519183D01*
X208718463Y-67483450D01*
X208715722Y-67460570D01*
X208698972Y-67429595D01*
X208685966Y-67418415D01*
X208652297Y-67408394D01*
X208633127Y-67412121D01*
X208607161Y-67434895D01*
X208603734Y-67441243D01*
X208592653Y-67474347D01*
X208584935Y-67508412D01*
X208582122Y-67522001D01*
X208574292Y-67557096D01*
X208565274Y-67590648D01*
X208466795Y-67590648D01*
X208474734Y-67568722D01*
X208484049Y-67535368D01*
X208492670Y-67498001D01*
X208500476Y-67459344D01*
X208501335Y-67454984D01*
X208509475Y-67418648D01*
X208519376Y-67384397D01*
X208532448Y-67351803D01*
X208537275Y-67342745D01*
X208558167Y-67315120D01*
X208585277Y-67293845D01*
X208596250Y-67287885D01*
X208629461Y-67276571D01*
X208663581Y-67273157D01*
X208679848Y-67273868D01*
G37*
G36*
X208806000Y-67983196D02*
G01*
X208806000Y-67848129D01*
X208291722Y-67848129D01*
X208291722Y-67973621D01*
X208364384Y-67973621D01*
X208335676Y-67993076D01*
X208308690Y-68016470D01*
X208296851Y-68031409D01*
X208283432Y-68064537D01*
X208280780Y-68090052D01*
X208284675Y-68124192D01*
X208296359Y-68157371D01*
X208308477Y-68178956D01*
X208434311Y-68137069D01*
X208418357Y-68106101D01*
X208412085Y-68073639D01*
X208418711Y-68040070D01*
X208427472Y-68025425D01*
X208456390Y-68004121D01*
X208483037Y-67994480D01*
X208520946Y-67988055D01*
X208555904Y-67985355D01*
X208592576Y-67983901D01*
X208627864Y-67983295D01*
X208651101Y-67983196D01*
X208806000Y-67983196D01*
G37*
G36*
X208577987Y-68205411D02*
G01*
X208614274Y-68209394D01*
X208647814Y-68216441D01*
X208684437Y-68228941D01*
X208717105Y-68245853D01*
X208745818Y-68267177D01*
X208762488Y-68283259D01*
X208786311Y-68313305D01*
X208803328Y-68345772D01*
X208813538Y-68380661D01*
X208816942Y-68417972D01*
X208815935Y-68436864D01*
X208808727Y-68471774D01*
X208795912Y-68503799D01*
X208782202Y-68526853D01*
X208758368Y-68554815D01*
X208730944Y-68577658D01*
X208806000Y-68577658D01*
X208806000Y-68703150D01*
X208094764Y-68703150D01*
X208094764Y-68568084D01*
X208351903Y-68568084D01*
X208335234Y-68552080D01*
X208311410Y-68522336D01*
X208294393Y-68490384D01*
X208284183Y-68456223D01*
X208284107Y-68455415D01*
X208379258Y-68455415D01*
X208381206Y-68476248D01*
X208395153Y-68510379D01*
X208419949Y-68536625D01*
X208443436Y-68550538D01*
X208477574Y-68561438D01*
X208514776Y-68566904D01*
X208552622Y-68568426D01*
X208577475Y-68567624D01*
X208613056Y-68563008D01*
X208646927Y-68552910D01*
X208676917Y-68535600D01*
X208691036Y-68522867D01*
X208711606Y-68491939D01*
X208718463Y-68456441D01*
X208718409Y-68452790D01*
X208711917Y-68419097D01*
X208692280Y-68387936D01*
X208663069Y-68364972D01*
X208644047Y-68356178D01*
X208609012Y-68347362D01*
X208574324Y-68343483D01*
X208539115Y-68342404D01*
X208519817Y-68342911D01*
X208484939Y-68346972D01*
X208451628Y-68356393D01*
X208419436Y-68374888D01*
X208403781Y-68389844D01*
X208384908Y-68421571D01*
X208379258Y-68455415D01*
X208284107Y-68455415D01*
X208280780Y-68419853D01*
X208281840Y-68397058D01*
X208288800Y-68359571D01*
X208302256Y-68325143D01*
X208322207Y-68293775D01*
X208348655Y-68265467D01*
X208366601Y-68251162D01*
X208397188Y-68233280D01*
X208432174Y-68219690D01*
X208471559Y-68210391D01*
X208507742Y-68205921D01*
X208546980Y-68204431D01*
X208577987Y-68205411D01*
G37*
G36*
X210076216Y-60010561D02*
G01*
X210065274Y-60149047D01*
X210100517Y-60158096D01*
X210133015Y-60172909D01*
X210160663Y-60194988D01*
X210164778Y-60199654D01*
X210182883Y-60229135D01*
X210193473Y-60264919D01*
X210196579Y-60302920D01*
X210194320Y-60338903D01*
X210186513Y-60372603D01*
X210169783Y-60404315D01*
X210168027Y-60406528D01*
X210141062Y-60430370D01*
X210108103Y-60441099D01*
X210101006Y-60441406D01*
X210067025Y-60432431D01*
X210059119Y-60426702D01*
X210038369Y-60398053D01*
X210029028Y-60375582D01*
X210018566Y-60341385D01*
X210009006Y-60306509D01*
X210000037Y-60272409D01*
X209997228Y-60261545D01*
X209987783Y-60227467D01*
X209975633Y-60190970D01*
X209962594Y-60159270D01*
X209946257Y-60128349D01*
X209926104Y-60101004D01*
X209899138Y-60075689D01*
X209869701Y-60056592D01*
X209837793Y-60043713D01*
X209803415Y-60037051D01*
X209782660Y-60036036D01*
X209746110Y-60039632D01*
X209711217Y-60050420D01*
X209680933Y-60066468D01*
X209653448Y-60088217D01*
X209630404Y-60115208D01*
X209611801Y-60147442D01*
X209608613Y-60154518D01*
X209596629Y-60188794D01*
X209589269Y-60222395D01*
X209585009Y-60258945D01*
X209583822Y-60293346D01*
X209585279Y-60333203D01*
X209589649Y-60369855D01*
X209596933Y-60403301D01*
X209609519Y-60439204D01*
X209626301Y-60470492D01*
X209643491Y-60493039D01*
X209671502Y-60519383D01*
X209703326Y-60539625D01*
X209738962Y-60553763D01*
X209772541Y-60561024D01*
X209802664Y-60563649D01*
X209802664Y-60421231D01*
X209767457Y-60411478D01*
X209736897Y-60392624D01*
X209727266Y-60382079D01*
X209711488Y-60349990D01*
X209704997Y-60313317D01*
X209704185Y-60291807D01*
X209706623Y-60255730D01*
X209714935Y-60222061D01*
X209729147Y-60194696D01*
X209757902Y-60173913D01*
X209772231Y-60172128D01*
X209804961Y-60184053D01*
X209814119Y-60193328D01*
X209831245Y-60224303D01*
X209843170Y-60257001D01*
X209853938Y-60293518D01*
X209861819Y-60324120D01*
X209871344Y-60361196D01*
X209880941Y-60394461D01*
X209892229Y-60428454D01*
X209905250Y-60460951D01*
X209913452Y-60477822D01*
X209931795Y-60506797D01*
X209956330Y-60533771D01*
X209985431Y-60555614D01*
X210019340Y-60571675D01*
X210054549Y-60580490D01*
X210089806Y-60583713D01*
X210098100Y-60583824D01*
X210135389Y-60580534D01*
X210171176Y-60570667D01*
X210205460Y-60554221D01*
X210212137Y-60550143D01*
X210239882Y-60528993D01*
X210263300Y-60503434D01*
X210282390Y-60473466D01*
X210291125Y-60454912D01*
X210302420Y-60422246D01*
X210310487Y-60385798D01*
X210314899Y-60350802D01*
X210316841Y-60312910D01*
X210316942Y-60301552D01*
X210315443Y-60261287D01*
X210310948Y-60224051D01*
X210303455Y-60189847D01*
X210290508Y-60152801D01*
X210273246Y-60120119D01*
X210255563Y-60096217D01*
X210230505Y-60071379D01*
X210201491Y-60050592D01*
X210168523Y-60033857D01*
X210131599Y-60021172D01*
X210097809Y-60013696D01*
X210076216Y-60010561D01*
G37*
G36*
X210306000Y-60701280D02*
G01*
X209594764Y-60701280D01*
X209594764Y-60839766D01*
X210075361Y-61128192D01*
X209594764Y-61128192D01*
X209594764Y-61260352D01*
X210306000Y-61260352D01*
X210306000Y-61117592D01*
X209832584Y-60833440D01*
X210306000Y-60833440D01*
X210306000Y-60701280D01*
G37*
G36*
X209923027Y-61431835D02*
G01*
X209791722Y-61431835D01*
X209791722Y-61567072D01*
X209923027Y-61567072D01*
X209923027Y-61431835D01*
G37*
G36*
X210306000Y-61431835D02*
G01*
X210174695Y-61431835D01*
X210174695Y-61567072D01*
X210306000Y-61567072D01*
X210306000Y-61431835D01*
G37*
G36*
X207266850Y-68873888D02*
G01*
X207304982Y-68875058D01*
X207342768Y-68877532D01*
X207377117Y-68881822D01*
X207396694Y-68886064D01*
X207430311Y-68898228D01*
X207456704Y-68917522D01*
X207470649Y-68949226D01*
X207471579Y-68961120D01*
X207463020Y-68994907D01*
X207456362Y-69004888D01*
X207427992Y-69025565D01*
X207401994Y-69034637D01*
X207368079Y-69041414D01*
X207334033Y-69045151D01*
X207299512Y-69047287D01*
X207260062Y-69048437D01*
X207231024Y-69048656D01*
X207195251Y-69048351D01*
X207157184Y-69047181D01*
X207119472Y-69044707D01*
X207085209Y-69040417D01*
X207065696Y-69036175D01*
X207031929Y-69023978D01*
X207005344Y-69004546D01*
X206991078Y-68973002D01*
X206990127Y-68961120D01*
X206998686Y-68927332D01*
X207005344Y-68917351D01*
X207033714Y-68896675D01*
X207059712Y-68887602D01*
X207093862Y-68880825D01*
X207128015Y-68877088D01*
X207162576Y-68874952D01*
X207202018Y-68873802D01*
X207231024Y-68873583D01*
X207266850Y-68873888D01*
G37*
G36*
X207187085Y-66752016D02*
G01*
X207186411Y-66790591D01*
X207184045Y-66825661D01*
X207177618Y-66860749D01*
X207176314Y-66864515D01*
X207157827Y-66895182D01*
X207142120Y-66908967D01*
X207110116Y-66922778D01*
X207088093Y-66925038D01*
X207053600Y-66919396D01*
X207025689Y-66902470D01*
X207004742Y-66875065D01*
X206994914Y-66845195D01*
X206991478Y-66810005D01*
X206990356Y-66773981D01*
X206990127Y-66742784D01*
X206990127Y-66674054D01*
X207187085Y-66674054D01*
X207187085Y-66752016D01*
G37*
G36*
X207669720Y-69701235D02*
G01*
X206791986Y-69701235D01*
X206791986Y-69623457D01*
X206869764Y-69623457D01*
X207581000Y-69623457D01*
X207581000Y-69488391D01*
X207066380Y-69488391D01*
X207092847Y-69459698D01*
X207116597Y-69429142D01*
X207137630Y-69396722D01*
X207155947Y-69362440D01*
X207171546Y-69326293D01*
X207176143Y-69313831D01*
X207044838Y-69313831D01*
X207031287Y-69347751D01*
X207014009Y-69379821D01*
X206994609Y-69409553D01*
X206980553Y-69428722D01*
X206955805Y-69457317D01*
X206929091Y-69481039D01*
X206900411Y-69499889D01*
X206869764Y-69513866D01*
X206869764Y-69623457D01*
X206791986Y-69623457D01*
X206791986Y-68961120D01*
X206869764Y-68961120D01*
X206872343Y-68997897D01*
X206880079Y-69031548D01*
X206895622Y-69066858D01*
X206918184Y-69097914D01*
X206943110Y-69121147D01*
X206973040Y-69140948D01*
X207008547Y-69157392D01*
X207049629Y-69170480D01*
X207086511Y-69178534D01*
X207126961Y-69184441D01*
X207170981Y-69188199D01*
X207206337Y-69189609D01*
X207231024Y-69189877D01*
X207267667Y-69189269D01*
X207302326Y-69187443D01*
X207345454Y-69183115D01*
X207385055Y-69176624D01*
X207421129Y-69167969D01*
X207453678Y-69157149D01*
X207489404Y-69140582D01*
X207519621Y-69120635D01*
X207547801Y-69093425D01*
X207569059Y-69061912D01*
X207583396Y-69026096D01*
X207590176Y-68991972D01*
X207591942Y-68961120D01*
X207589153Y-68923924D01*
X207580786Y-68889529D01*
X207566841Y-68857934D01*
X207547318Y-68829141D01*
X207522218Y-68803149D01*
X207512612Y-68795108D01*
X207478493Y-68773726D01*
X207443385Y-68759287D01*
X207402208Y-68747920D01*
X207364896Y-68741038D01*
X207323700Y-68736123D01*
X207278620Y-68733174D01*
X207242261Y-68732252D01*
X207229656Y-68732191D01*
X207193196Y-68732799D01*
X207158702Y-68734625D01*
X207115767Y-68738953D01*
X207076327Y-68745444D01*
X207040380Y-68754100D01*
X207007928Y-68764919D01*
X206972277Y-68781486D01*
X206942085Y-68801434D01*
X206913905Y-68828651D01*
X206892647Y-68860188D01*
X206878310Y-68896045D01*
X206871530Y-68930218D01*
X206869764Y-68961120D01*
X206791986Y-68961120D01*
X206791986Y-68189019D01*
X207066722Y-68189019D01*
X207066722Y-68324256D01*
X207198027Y-68324256D01*
X207198027Y-68189019D01*
X207449695Y-68189019D01*
X207449695Y-68324256D01*
X207581000Y-68324256D01*
X207581000Y-68189019D01*
X207449695Y-68189019D01*
X207198027Y-68189019D01*
X207066722Y-68189019D01*
X206791986Y-68189019D01*
X206791986Y-67186280D01*
X206869764Y-67186280D01*
X206869764Y-67324766D01*
X207350361Y-67613192D01*
X206869764Y-67613192D01*
X206869764Y-67745352D01*
X207581000Y-67745352D01*
X207581000Y-67602592D01*
X207107584Y-67318440D01*
X207581000Y-67318440D01*
X207581000Y-67186280D01*
X206869764Y-67186280D01*
X206791986Y-67186280D01*
X206791986Y-66531636D01*
X206869764Y-66531636D01*
X206869764Y-66674054D01*
X206869764Y-66760052D01*
X206870023Y-66798445D01*
X206871017Y-66838676D01*
X206873118Y-66877560D01*
X206877311Y-66914811D01*
X206880364Y-66929312D01*
X206892160Y-66961884D01*
X206909853Y-66991318D01*
X206933442Y-67017615D01*
X206949094Y-67030868D01*
X206981355Y-67050621D01*
X207014141Y-67062752D01*
X207050796Y-67069775D01*
X207086041Y-67071730D01*
X207120771Y-67069864D01*
X207155553Y-67063412D01*
X207189184Y-67050993D01*
X207194778Y-67048136D01*
X207225192Y-67028662D01*
X207252118Y-67003549D01*
X207264021Y-66988297D01*
X207281648Y-66958621D01*
X207294382Y-66926159D01*
X207297360Y-66914438D01*
X207302680Y-66878137D01*
X207305517Y-66842676D01*
X207306965Y-66806968D01*
X207307448Y-66766891D01*
X207307448Y-66674054D01*
X207581000Y-66674054D01*
X207581000Y-66531636D01*
X206869764Y-66531636D01*
X206791986Y-66531636D01*
X206791986Y-66453858D01*
X207669720Y-66453858D01*
X207669720Y-69701235D01*
G37*
D12*
G36*
X207645356Y-65840891D02*
G01*
X207691558Y-65862336D01*
X207707752Y-65876364D01*
X207736679Y-65919086D01*
X207747895Y-65969858D01*
X207748053Y-65977236D01*
X207738954Y-66027733D01*
X207711660Y-66069316D01*
X207669600Y-66095963D01*
X207620298Y-66105860D01*
X207602728Y-66106441D01*
X207552170Y-66101014D01*
X207505687Y-66080965D01*
X207489888Y-66067850D01*
X207460762Y-66024863D01*
X207451091Y-65976134D01*
X207451053Y-65972595D01*
X207459318Y-65921827D01*
X207484112Y-65879430D01*
X207488667Y-65874410D01*
X207531067Y-65846185D01*
X207579361Y-65835701D01*
X207596378Y-65835087D01*
X207645356Y-65840891D01*
G37*
G36*
X207513579Y-65088192D02*
G01*
X207198262Y-65088192D01*
X207513579Y-64819036D01*
X207513579Y-65088192D01*
G37*
G36*
X208046742Y-66482555D02*
G01*
X206792838Y-66482555D01*
X206792838Y-65974549D01*
X206903949Y-65974549D01*
X206905328Y-66024703D01*
X206910282Y-66076097D01*
X206920161Y-66126362D01*
X206932770Y-66164326D01*
X206955562Y-66209522D01*
X206984646Y-66249061D01*
X207016545Y-66280097D01*
X207057703Y-66309207D01*
X207105615Y-66333065D01*
X207155031Y-66350195D01*
X207185317Y-66072002D01*
X207137000Y-66054923D01*
X207112777Y-66035122D01*
X207092856Y-65989784D01*
X207091528Y-65971618D01*
X207102855Y-65921408D01*
X207136836Y-65881114D01*
X207160160Y-65865861D01*
X207207384Y-65848618D01*
X207258442Y-65838253D01*
X207314664Y-65830687D01*
X207371430Y-65825317D01*
X207336886Y-65860057D01*
X207306970Y-65898680D01*
X207289853Y-65928143D01*
X207273278Y-65972595D01*
X207272774Y-65973947D01*
X207264402Y-66025234D01*
X207263475Y-66050753D01*
X207266772Y-66099760D01*
X207278954Y-66153245D01*
X207300111Y-66202756D01*
X207330245Y-66248294D01*
X207357264Y-66278387D01*
X207400704Y-66314647D01*
X207448960Y-66342000D01*
X207502031Y-66360448D01*
X207551353Y-66369172D01*
X207595157Y-66371444D01*
X207648523Y-66367715D01*
X207699261Y-66356529D01*
X207747372Y-66337885D01*
X207772965Y-66324305D01*
X207815074Y-66295029D01*
X207851001Y-66259957D01*
X207880745Y-66219088D01*
X207894598Y-66193879D01*
X207914433Y-66143570D01*
X207926615Y-66093271D01*
X207933668Y-66037721D01*
X207935631Y-65984808D01*
X207933836Y-65930216D01*
X207928453Y-65879833D01*
X207917635Y-65826370D01*
X207901932Y-65778633D01*
X207884584Y-65742274D01*
X207855260Y-65698891D01*
X207818333Y-65660087D01*
X207779787Y-65629890D01*
X207735420Y-65603199D01*
X207721674Y-65596217D01*
X207669168Y-65574995D01*
X207618655Y-65560953D01*
X207563060Y-65550740D01*
X207512847Y-65545155D01*
X207459104Y-65542230D01*
X207425163Y-65541751D01*
X207375784Y-65542758D01*
X207313899Y-65547232D01*
X207256533Y-65555287D01*
X207203685Y-65566921D01*
X207155355Y-65582134D01*
X207101297Y-65606185D01*
X207054300Y-65635830D01*
X207029490Y-65656301D01*
X206993324Y-65694339D01*
X206963287Y-65736706D01*
X206939380Y-65783401D01*
X206921603Y-65834427D01*
X206909957Y-65889781D01*
X206904440Y-65949464D01*
X206903949Y-65974549D01*
X206792838Y-65974549D01*
X206792838Y-65331946D01*
X206903949Y-65331946D01*
X207513579Y-65331946D01*
X207513579Y-65458464D01*
X207748053Y-65458464D01*
X207748053Y-65331946D01*
X207920000Y-65331946D01*
X207920000Y-65088192D01*
X207748053Y-65088192D01*
X207748053Y-64578457D01*
X207515778Y-64578457D01*
X206903949Y-65088192D01*
X206903949Y-65331946D01*
X206792838Y-65331946D01*
X206792838Y-64080446D01*
X206903949Y-64080446D01*
X206905117Y-64133466D01*
X206909431Y-64189505D01*
X206916925Y-64239280D01*
X206929381Y-64288495D01*
X206937166Y-64310034D01*
X206961233Y-64358020D01*
X206992216Y-64399088D01*
X207030117Y-64433239D01*
X207038527Y-64439239D01*
X207082891Y-64464097D01*
X207130500Y-64479749D01*
X207181352Y-64486194D01*
X207191912Y-64486378D01*
X207241989Y-64482108D01*
X207290830Y-64469299D01*
X207338434Y-64447950D01*
X207364347Y-64432400D01*
X207406509Y-64399900D01*
X207445054Y-64362422D01*
X207479321Y-64323582D01*
X207514721Y-64278542D01*
X207545087Y-64236273D01*
X207574648Y-64193162D01*
X207603381Y-64152486D01*
X207625443Y-64123189D01*
X207657700Y-64085928D01*
X207685526Y-64056266D01*
X207685526Y-64493217D01*
X207920000Y-64493217D01*
X207920000Y-63653754D01*
X207865681Y-63662863D01*
X207812789Y-63677583D01*
X207761323Y-63697912D01*
X207711283Y-63723852D01*
X207683328Y-63741193D01*
X207640409Y-63773170D01*
X207602741Y-63806691D01*
X207563344Y-63846461D01*
X207530581Y-63882777D01*
X207496711Y-63923093D01*
X207461735Y-63967407D01*
X207425652Y-64015722D01*
X207393475Y-64058758D01*
X207359798Y-64101067D01*
X207326406Y-64139000D01*
X207289364Y-64173014D01*
X207246703Y-64197733D01*
X207200949Y-64207452D01*
X207151737Y-64195484D01*
X207123524Y-64173503D01*
X207097652Y-64129745D01*
X207091528Y-64088018D01*
X207100198Y-64039230D01*
X207126210Y-64000334D01*
X207170088Y-63973390D01*
X207221883Y-63958867D01*
X207247843Y-63954661D01*
X207224640Y-63674270D01*
X207175518Y-63682845D01*
X207125475Y-63695851D01*
X207076950Y-63714570D01*
X207040725Y-63734842D01*
X207002386Y-63765826D01*
X206970105Y-63803822D01*
X206943882Y-63848830D01*
X206939364Y-63858674D01*
X206922245Y-63908605D01*
X206911731Y-63961163D01*
X206906163Y-64013463D01*
X206904088Y-64062979D01*
X206903949Y-64080446D01*
X206792838Y-64080446D01*
X206792838Y-63181632D01*
X207435422Y-63181632D01*
X207435422Y-63588297D01*
X207654263Y-63588297D01*
X207654263Y-63181632D01*
X207435422Y-63181632D01*
X206792838Y-63181632D01*
X206792838Y-62089623D01*
X206919581Y-62089623D01*
X206919581Y-62400788D01*
X207297669Y-62400788D01*
X206919581Y-62727096D01*
X206919581Y-63140600D01*
X207296936Y-62773747D01*
X207920000Y-63156964D01*
X207920000Y-62773747D01*
X207508450Y-62561500D01*
X207675757Y-62400788D01*
X207920000Y-62400788D01*
X207920000Y-62089623D01*
X206919581Y-62089623D01*
X206792838Y-62089623D01*
X206792838Y-61426748D01*
X206903949Y-61426748D01*
X206904713Y-61476827D01*
X206907643Y-61531507D01*
X206912773Y-61580279D01*
X206921535Y-61629713D01*
X206935212Y-61676364D01*
X206957986Y-61725346D01*
X206987534Y-61768794D01*
X207023855Y-61806709D01*
X207031933Y-61813628D01*
X207071534Y-61842258D01*
X207116700Y-61866599D01*
X207167430Y-61886651D01*
X207198018Y-61895938D01*
X207247843Y-61595764D01*
X207203629Y-61572673D01*
X207168534Y-61535502D01*
X207166755Y-61532749D01*
X207146418Y-61485937D01*
X207138865Y-61436685D01*
X207138422Y-61419909D01*
X207143697Y-61365628D01*
X207159520Y-61317916D01*
X207185892Y-61276773D01*
X207205101Y-61256755D01*
X207248751Y-61227356D01*
X207297867Y-61209301D01*
X207348807Y-61199739D01*
X207398386Y-61196176D01*
X207416127Y-61195938D01*
X207470646Y-61198102D01*
X207526438Y-61206096D01*
X207573816Y-61219981D01*
X207617657Y-61243062D01*
X207635457Y-61257487D01*
X207667217Y-61295934D01*
X207688582Y-61342032D01*
X207699554Y-61395780D01*
X207701158Y-61428946D01*
X207698593Y-61479809D01*
X207690900Y-61528353D01*
X207678116Y-61575955D01*
X207660472Y-61625710D01*
X207655973Y-61637041D01*
X207591737Y-61637041D01*
X207591737Y-61428946D01*
X207357264Y-61428946D01*
X207357264Y-61909616D01*
X207763196Y-61909616D01*
X207792927Y-61867267D01*
X207824480Y-61818495D01*
X207851534Y-61771955D01*
X207874088Y-61727648D01*
X207894715Y-61678778D01*
X207899483Y-61665373D01*
X207913568Y-61617092D01*
X207924194Y-61565001D01*
X207931360Y-61509101D01*
X207934749Y-61458153D01*
X207935631Y-61413558D01*
X207934152Y-61359151D01*
X207929716Y-61307976D01*
X207920488Y-61250832D01*
X207907001Y-61198341D01*
X207889255Y-61150505D01*
X207875059Y-61121200D01*
X207845730Y-61074251D01*
X207810745Y-61032142D01*
X207770103Y-60994871D01*
X207723804Y-60962438D01*
X207694808Y-60946078D01*
X207648600Y-60924995D01*
X207599919Y-60908273D01*
X207548766Y-60895914D01*
X207495139Y-60887917D01*
X207439040Y-60884282D01*
X207419790Y-60884040D01*
X207369772Y-60885698D01*
X207312504Y-60892063D01*
X207258242Y-60903203D01*
X207206986Y-60919117D01*
X207158734Y-60939805D01*
X207135736Y-60951939D01*
X207092450Y-60979709D01*
X207053269Y-61011909D01*
X207018193Y-61048539D01*
X206987221Y-61089601D01*
X206960353Y-61135093D01*
X206952309Y-61151242D01*
X206933466Y-61199404D01*
X206919251Y-61254345D01*
X206910750Y-61306832D01*
X206905649Y-61364300D01*
X206903996Y-61415994D01*
X206903949Y-61426748D01*
X206792838Y-61426748D01*
X206792838Y-60013070D01*
X206919581Y-60013070D01*
X206919581Y-60324235D01*
X207669895Y-60324235D01*
X207669895Y-60809790D01*
X207920000Y-60809790D01*
X207920000Y-60013070D01*
X206919581Y-60013070D01*
X206792838Y-60013070D01*
X206792838Y-59901959D01*
X208046742Y-59901959D01*
X208046742Y-66482555D01*
G37*
D13*
%TO.C,REF\u002A\u002A*%
X206678553Y-69421447D02*
X206678553Y-60278553D01*
X210021447Y-59778553D02*
X207178553Y-59778553D01*
X210021447Y-69921447D02*
X207178553Y-69921447D01*
X210521447Y-69421447D02*
X210521447Y-60278553D01*
D10*
X207620000Y-69835000D02*
X206825000Y-69835000D01*
X206825000Y-69679600D01*
X207620000Y-69679600D01*
X207620000Y-69835000D01*
G36*
X207620000Y-69835000D02*
G01*
X206825000Y-69835000D01*
X206825000Y-69679600D01*
X207620000Y-69679600D01*
X207620000Y-69835000D01*
G37*
D13*
X206678553Y-60278553D02*
G75*
G02*
X207178553Y-59778553I500001J-1D01*
G01*
X207178553Y-69921447D02*
G75*
G02*
X206678553Y-69421447I-3J499997D01*
G01*
X210021447Y-59778553D02*
G75*
G02*
X210521447Y-60278553I-1J-500001D01*
G01*
X210521447Y-69421447D02*
G75*
G02*
X210021447Y-69921447I-499997J-3D01*
G01*
%TD*%
D14*
%TO.C,D19*%
X79509280Y-130530000D03*
D15*
X83909280Y-130530000D03*
%TD*%
D14*
%TO.C,D18*%
X174759280Y-111480000D03*
D15*
X179159280Y-111480000D03*
%TD*%
D16*
%TO.C,SW8*%
X95209280Y-84380000D03*
D17*
X95489280Y-80180000D03*
D18*
X100709280Y-84380000D03*
D17*
X105929280Y-80180000D03*
D16*
X106209280Y-84380000D03*
D19*
X100709280Y-90280000D03*
X95709280Y-88180000D03*
X105709280Y-88180000D03*
%TD*%
D14*
%TO.C,D5*%
X155709280Y-73380000D03*
D15*
X160109280Y-73380000D03*
%TD*%
D20*
%TO.C,U1*%
X188930000Y-58680000D03*
X188980800Y-61220000D03*
X188879200Y-63760000D03*
X188930000Y-66300000D03*
X188828400Y-68840000D03*
X188879200Y-71380000D03*
X188930000Y-73920000D03*
X204424000Y-73920000D03*
X204373200Y-71380000D03*
X204322400Y-68840000D03*
X204424000Y-66300000D03*
X204373200Y-63760000D03*
X204474800Y-61220000D03*
X204424000Y-58680000D03*
%TD*%
D16*
%TO.C,SW19*%
X76159280Y-122480000D03*
D17*
X76439280Y-118280000D03*
D18*
X81659280Y-122480000D03*
D17*
X86879280Y-118280000D03*
D16*
X87159280Y-122480000D03*
D19*
X81659280Y-128380000D03*
X76659280Y-126280000D03*
X86659280Y-126280000D03*
%TD*%
D14*
%TO.C,D13*%
X79509280Y-111480000D03*
D15*
X83909280Y-111480000D03*
%TD*%
D14*
%TO.C,D24*%
X174759280Y-130530000D03*
D15*
X179159280Y-130530000D03*
%TD*%
D14*
%TO.C,D2*%
X98559280Y-73380000D03*
D15*
X102959280Y-73380000D03*
%TD*%
D16*
%TO.C,SW2*%
X95209280Y-65330000D03*
D17*
X95489280Y-61130000D03*
D18*
X100709280Y-65330000D03*
D17*
X105929280Y-61130000D03*
D16*
X106209280Y-65330000D03*
D19*
X100709280Y-71230000D03*
X95709280Y-69130000D03*
X105709280Y-69130000D03*
%TD*%
D14*
%TO.C,D10*%
X136659280Y-92430000D03*
D15*
X141059280Y-92430000D03*
%TD*%
D21*
%TO.C,REF\u002A\u002A*%
X209050000Y-57500000D03*
%TD*%
D14*
%TO.C,D22*%
X136659280Y-130530000D03*
D15*
X141059280Y-130530000D03*
%TD*%
D14*
%TO.C,D14*%
X98559280Y-111480000D03*
D15*
X102959280Y-111480000D03*
%TD*%
D14*
%TO.C,D17*%
X155709280Y-111480000D03*
D15*
X160109280Y-111480000D03*
%TD*%
D16*
%TO.C,SW3*%
X114259280Y-65330000D03*
D17*
X114539280Y-61130000D03*
D18*
X119759280Y-65330000D03*
D17*
X124979280Y-61130000D03*
D16*
X125259280Y-65330000D03*
D19*
X119759280Y-71230000D03*
X114759280Y-69130000D03*
X124759280Y-69130000D03*
%TD*%
D22*
%TO.C,J3*%
X205009280Y-79430000D03*
D23*
X205009280Y-81430000D03*
%TD*%
D21*
%TO.C,REF\u002A\u002A*%
X70470000Y-57500000D03*
%TD*%
D14*
%TO.C,D4*%
X136659280Y-73380000D03*
D15*
X141059280Y-73380000D03*
%TD*%
D16*
%TO.C,SW6*%
X171409280Y-65330000D03*
D17*
X171689280Y-61130000D03*
D18*
X176909280Y-65330000D03*
D17*
X182129280Y-61130000D03*
D16*
X182409280Y-65330000D03*
D19*
X176909280Y-71230000D03*
X171909280Y-69130000D03*
X181909280Y-69130000D03*
%TD*%
D16*
%TO.C,SW7*%
X76159280Y-84380000D03*
D17*
X76439280Y-80180000D03*
D18*
X81659280Y-84380000D03*
D17*
X86879280Y-80180000D03*
D16*
X87159280Y-84380000D03*
D19*
X81659280Y-90280000D03*
X76659280Y-88180000D03*
X86659280Y-88180000D03*
%TD*%
D20*
%TO.C,SW25*%
X175500000Y-52150000D03*
X167100000Y-52150000D03*
D24*
X173300000Y-52150000D03*
X171300000Y-52150000D03*
X169300000Y-52150000D03*
%TD*%
D16*
%TO.C,SW15*%
X114259280Y-103430000D03*
D17*
X114539280Y-99230000D03*
D18*
X119759280Y-103430000D03*
D17*
X124979280Y-99230000D03*
D16*
X125259280Y-103430000D03*
D19*
X119759280Y-109330000D03*
X114759280Y-107230000D03*
X124759280Y-107230000D03*
%TD*%
D16*
%TO.C,SW13*%
X76159280Y-103430000D03*
D17*
X76439280Y-99230000D03*
D18*
X81659280Y-103430000D03*
D17*
X86879280Y-99230000D03*
D16*
X87159280Y-103430000D03*
D19*
X81659280Y-109330000D03*
X76659280Y-107230000D03*
X86659280Y-107230000D03*
%TD*%
D14*
%TO.C,D7*%
X79509280Y-92430000D03*
D15*
X83909280Y-92430000D03*
%TD*%
D16*
%TO.C,SW17*%
X152359280Y-103430000D03*
D17*
X152639280Y-99230000D03*
D18*
X157859280Y-103430000D03*
D17*
X163079280Y-99230000D03*
D16*
X163359280Y-103430000D03*
D19*
X157859280Y-109330000D03*
X152859280Y-107230000D03*
X162859280Y-107230000D03*
%TD*%
D14*
%TO.C,D25*%
X158300000Y-49700000D03*
D15*
X158300000Y-54100000D03*
%TD*%
D14*
%TO.C,D11*%
X155709280Y-92430000D03*
D15*
X160109280Y-92430000D03*
%TD*%
D16*
%TO.C,SW20*%
X95209280Y-122480000D03*
D17*
X95489280Y-118280000D03*
D18*
X100709280Y-122480000D03*
D17*
X105929280Y-118280000D03*
D16*
X106209280Y-122480000D03*
D19*
X100709280Y-128380000D03*
X95709280Y-126280000D03*
X105709280Y-126280000D03*
%TD*%
D25*
%TO.C,U2*%
X189469280Y-79680000D03*
D26*
X192009280Y-79680000D03*
%TD*%
D27*
%TO.C,SWE2*%
X148800000Y-49800000D03*
X155300000Y-49800000D03*
X148800000Y-54300000D03*
X155300000Y-54300000D03*
%TD*%
D16*
%TO.C,SW4*%
X133309280Y-65330000D03*
D17*
X133589280Y-61130000D03*
D18*
X138809280Y-65330000D03*
D17*
X144029280Y-61130000D03*
D16*
X144309280Y-65330000D03*
D19*
X138809280Y-71230000D03*
X133809280Y-69130000D03*
X143809280Y-69130000D03*
%TD*%
D14*
%TO.C,D8*%
X98559280Y-92430000D03*
D15*
X102959280Y-92430000D03*
%TD*%
D16*
%TO.C,SW23*%
X152359280Y-122480000D03*
D17*
X152639280Y-118280000D03*
D18*
X157859280Y-122480000D03*
D17*
X163079280Y-118280000D03*
D16*
X163359280Y-122480000D03*
D19*
X157859280Y-128380000D03*
X152859280Y-126280000D03*
X162859280Y-126280000D03*
%TD*%
D16*
%TO.C,SW18*%
X171409280Y-103430000D03*
D17*
X171689280Y-99230000D03*
D18*
X176909280Y-103430000D03*
D17*
X182129280Y-99230000D03*
D16*
X182409280Y-103430000D03*
D19*
X176909280Y-109330000D03*
X171909280Y-107230000D03*
X181909280Y-107230000D03*
%TD*%
D16*
%TO.C,SW24*%
X171409280Y-122480000D03*
D17*
X171689280Y-118280000D03*
D18*
X176909280Y-122480000D03*
D17*
X182129280Y-118280000D03*
D16*
X182409280Y-122480000D03*
D19*
X176909280Y-128380000D03*
X171909280Y-126280000D03*
X181909280Y-126280000D03*
%TD*%
D14*
%TO.C,D12*%
X174759280Y-92430000D03*
D15*
X179159280Y-92430000D03*
%TD*%
D16*
%TO.C,SW5*%
X152359280Y-65330000D03*
D17*
X152639280Y-61130000D03*
D18*
X157859280Y-65330000D03*
D17*
X163079280Y-61130000D03*
D16*
X163359280Y-65330000D03*
D19*
X157859280Y-71230000D03*
X152859280Y-69130000D03*
X162859280Y-69130000D03*
%TD*%
D16*
%TO.C,SW1*%
X76159280Y-65330000D03*
D17*
X76439280Y-61130000D03*
D18*
X81659280Y-65330000D03*
D17*
X86879280Y-61130000D03*
D16*
X87159280Y-65330000D03*
D19*
X81659280Y-71230000D03*
X76659280Y-69130000D03*
X86659280Y-69130000D03*
%TD*%
D21*
%TO.C,REF\u002A\u002A*%
X186950000Y-133700000D03*
%TD*%
%TO.C,REF\u002A\u002A*%
X209050000Y-133700000D03*
%TD*%
%TO.C,REF\u002A\u002A*%
X180000000Y-50000000D03*
%TD*%
D14*
%TO.C,D9*%
X117609280Y-92430000D03*
D15*
X122009280Y-92430000D03*
%TD*%
D16*
%TO.C,SW10*%
X133309280Y-84380000D03*
D17*
X133589280Y-80180000D03*
D18*
X138809280Y-84380000D03*
D17*
X144029280Y-80180000D03*
D16*
X144309280Y-84380000D03*
D19*
X138809280Y-90280000D03*
X133809280Y-88180000D03*
X143809280Y-88180000D03*
%TD*%
D14*
%TO.C,D23*%
X155709280Y-130530000D03*
D15*
X160109280Y-130530000D03*
%TD*%
D27*
%TO.C,SWE0*%
X127150000Y-49800000D03*
X133650000Y-49800000D03*
X127150000Y-54300000D03*
X133650000Y-54300000D03*
%TD*%
D14*
%TO.C,D16*%
X136659280Y-111480000D03*
D15*
X141059280Y-111480000D03*
%TD*%
D16*
%TO.C,SW11*%
X152359280Y-84380000D03*
D17*
X152639280Y-80180000D03*
D18*
X157859280Y-84380000D03*
D17*
X163079280Y-80180000D03*
D16*
X163359280Y-84380000D03*
D19*
X157859280Y-90280000D03*
X152859280Y-88180000D03*
X162859280Y-88180000D03*
%TD*%
D14*
%TO.C,D26*%
X160900000Y-49700000D03*
D15*
X160900000Y-54100000D03*
%TD*%
D14*
%TO.C,D1*%
X79509280Y-73380000D03*
D15*
X83909280Y-73380000D03*
%TD*%
D14*
%TO.C,D15*%
X117609280Y-111480000D03*
D15*
X122009280Y-111480000D03*
%TD*%
D16*
%TO.C,SW12*%
X171409280Y-84380000D03*
D17*
X171689280Y-80180000D03*
D18*
X176909280Y-84380000D03*
D17*
X182129280Y-80180000D03*
D16*
X182409280Y-84380000D03*
D19*
X176909280Y-90280000D03*
X171909280Y-88180000D03*
X181909280Y-88180000D03*
%TD*%
D14*
%TO.C,D21*%
X117609280Y-130530000D03*
D15*
X122009280Y-130530000D03*
%TD*%
D21*
%TO.C,REF\u002A\u002A*%
X70460000Y-133700000D03*
%TD*%
D14*
%TO.C,D3*%
X117609280Y-73380000D03*
D15*
X122009280Y-73380000D03*
%TD*%
D27*
%TO.C,SWE1*%
X138000000Y-49800000D03*
X144500000Y-49800000D03*
X138000000Y-54300000D03*
X144500000Y-54300000D03*
%TD*%
D16*
%TO.C,SW9*%
X114259280Y-84380000D03*
D17*
X114539280Y-80180000D03*
D18*
X119759280Y-84380000D03*
D17*
X124979280Y-80180000D03*
D16*
X125259280Y-84380000D03*
D19*
X119759280Y-90280000D03*
X114759280Y-88180000D03*
X124759280Y-88180000D03*
%TD*%
D16*
%TO.C,SW22*%
X133309280Y-122480000D03*
D17*
X133589280Y-118280000D03*
D18*
X138809280Y-122480000D03*
D17*
X144029280Y-118280000D03*
D16*
X144309280Y-122480000D03*
D19*
X138809280Y-128380000D03*
X133809280Y-126280000D03*
X143809280Y-126280000D03*
%TD*%
D14*
%TO.C,D6*%
X174759280Y-73380000D03*
D15*
X179159280Y-73380000D03*
%TD*%
D14*
%TO.C,D27*%
X163500000Y-49700000D03*
D15*
X163500000Y-54100000D03*
%TD*%
D16*
%TO.C,SW14*%
X95209280Y-103430000D03*
D17*
X95489280Y-99230000D03*
D18*
X100709280Y-103430000D03*
D17*
X105929280Y-99230000D03*
D16*
X106209280Y-103430000D03*
D19*
X100709280Y-109330000D03*
X95709280Y-107230000D03*
X105709280Y-107230000D03*
%TD*%
D14*
%TO.C,D20*%
X98559280Y-130530000D03*
D15*
X102959280Y-130530000D03*
%TD*%
D16*
%TO.C,SW21*%
X114259280Y-122480000D03*
D17*
X114539280Y-118280000D03*
D18*
X119759280Y-122480000D03*
D17*
X124979280Y-118280000D03*
D16*
X125259280Y-122480000D03*
D19*
X119759280Y-128380000D03*
X114759280Y-126280000D03*
X124759280Y-126280000D03*
%TD*%
D21*
%TO.C,REF\u002A\u002A*%
X123580000Y-50030000D03*
%TD*%
D16*
%TO.C,SW16*%
X133309280Y-103430000D03*
D17*
X133589280Y-99230000D03*
D18*
X138809280Y-103430000D03*
D17*
X144029280Y-99230000D03*
D16*
X144309280Y-103430000D03*
D19*
X138809280Y-109330000D03*
X133809280Y-107230000D03*
X143809280Y-107230000D03*
%TD*%
D28*
%TO.C,JP_BATT+B1*%
X199500000Y-81750000D03*
X199500000Y-80450000D03*
X199500000Y-79150000D03*
%TD*%
D29*
%TO.C,JPB-2*%
X196112500Y-87835000D03*
D30*
X197562500Y-87835000D03*
%TD*%
D29*
%TO.C,JPB-6*%
X196087500Y-91457500D03*
D30*
X197537500Y-91457500D03*
%TD*%
D29*
%TO.C,JPB-10*%
X187786320Y-94057500D03*
D30*
X189236320Y-94057500D03*
%TD*%
D29*
%TO.C,JPB-5*%
X187786320Y-91457500D03*
D30*
X189236320Y-91457500D03*
%TD*%
D29*
%TO.C,JPB-8*%
X204462500Y-94082500D03*
D30*
X205912500Y-94082500D03*
%TD*%
D29*
%TO.C,JPB-4*%
X204312500Y-87857500D03*
D30*
X205762500Y-87857500D03*
%TD*%
D29*
%TO.C,JPB-13*%
X196112500Y-85230000D03*
D30*
X197562500Y-85230000D03*
%TD*%
D29*
%TO.C,JPB-14*%
X187737500Y-87882500D03*
D30*
X189187500Y-87882500D03*
%TD*%
D28*
%TO.C,JP_BATT-B1*%
X202150000Y-81750000D03*
X202150000Y-80450000D03*
X202150000Y-79150000D03*
%TD*%
D29*
%TO.C,JPB-12*%
X187712500Y-85257500D03*
D30*
X189162500Y-85257500D03*
%TD*%
D29*
%TO.C,JPB-9*%
X196087500Y-94082500D03*
D30*
X197537500Y-94082500D03*
%TD*%
D29*
%TO.C,JPB-11*%
X204312500Y-85257500D03*
D30*
X205762500Y-85257500D03*
%TD*%
D29*
%TO.C,JPB-7*%
X204462500Y-91457500D03*
D30*
X205912500Y-91457500D03*
%TD*%
M02*
