M48
; DRILL file {KiCad 8.0.1} date 2024-04-24T14:47:21+0900
; FORMAT={-:-/ absolute / inch / decimal}
; #@! TF.CreationDate,2024-04-24T14:47:21+09:00
; #@! TF.GenerationSoftware,Kicad,Pcbnew,8.0.1
; #@! TF.FileFunction,NonPlated,1,2,NPTH
FMAT,2
INCH
; #@! TA.AperFunction,NonPlated,NPTH,ComponentDrill
T1C0.0390
; #@! TA.AperFunction,NonPlated,NPTH,ComponentDrill
T2C0.0670
; #@! TA.AperFunction,NonPlated,NPTH,ComponentDrill
T3C0.1350
%
G90
G05
T1
X3.0094Y-2.4067
X3.0094Y-3.1567
X3.0094Y-3.9067
X3.0094Y-4.6567
X3.4204Y-2.4067
X3.4204Y-3.1567
X3.4204Y-3.9067
X3.4204Y-4.6567
X3.7594Y-2.4067
X3.7594Y-3.1567
X3.7594Y-3.9067
X3.7594Y-4.6567
X4.1704Y-2.4067
X4.1704Y-3.1567
X4.1704Y-3.9067
X4.1704Y-4.6567
X4.5094Y-2.4067
X4.5094Y-3.1567
X4.5094Y-3.9067
X4.5094Y-4.6567
X4.9204Y-2.4067
X4.9204Y-3.1567
X4.9204Y-3.9067
X4.9204Y-4.6567
X5.2594Y-2.4067
X5.2594Y-3.1567
X5.2594Y-3.9067
X5.2594Y-4.6567
X5.6704Y-2.4067
X5.6704Y-3.1567
X5.6704Y-3.9067
X5.6704Y-4.6567
X6.0094Y-2.4067
X6.0094Y-3.1567
X6.0094Y-3.9067
X6.0094Y-4.6567
X6.4204Y-2.4067
X6.4204Y-3.1567
X6.4204Y-3.9067
X6.4204Y-4.6567
X6.7594Y-2.4067
X6.7594Y-3.1567
X6.7594Y-3.9067
X6.7594Y-4.6567
X7.1704Y-2.4067
X7.1704Y-3.1567
X7.1704Y-3.9067
X7.1704Y-4.6567
T2
X2.9984Y-2.572
X2.9984Y-3.322
X2.9984Y-4.072
X2.9984Y-4.822
X3.4315Y-2.572
X3.4315Y-3.322
X3.4315Y-4.072
X3.4315Y-4.822
X3.7484Y-2.572
X3.7484Y-3.322
X3.7484Y-4.072
X3.7484Y-4.822
X4.1815Y-2.572
X4.1815Y-3.322
X4.1815Y-4.072
X4.1815Y-4.822
X4.4984Y-2.572
X4.4984Y-3.322
X4.4984Y-4.072
X4.4984Y-4.822
X4.9315Y-2.572
X4.9315Y-3.322
X4.9315Y-4.072
X4.9315Y-4.822
X5.2484Y-2.572
X5.2484Y-3.322
X5.2484Y-4.072
X5.2484Y-4.822
X5.6815Y-2.572
X5.6815Y-3.322
X5.6815Y-4.072
X5.6815Y-4.822
X5.9984Y-2.572
X5.9984Y-3.322
X5.9984Y-4.072
X5.9984Y-4.822
X6.4315Y-2.572
X6.4315Y-3.322
X6.4315Y-4.072
X6.4315Y-4.822
X6.7484Y-2.572
X6.7484Y-3.322
X6.7484Y-4.072
X6.7484Y-4.822
X7.1815Y-2.572
X7.1815Y-3.322
X7.1815Y-4.072
X7.1815Y-4.822
T3
X3.2149Y-2.572
X3.2149Y-3.322
X3.2149Y-4.072
X3.2149Y-4.822
X3.9649Y-2.572
X3.9649Y-3.322
X3.9649Y-4.072
X3.9649Y-4.822
X4.7149Y-2.572
X4.7149Y-3.322
X4.7149Y-4.072
X4.7149Y-4.822
X5.4649Y-2.572
X5.4649Y-3.322
X5.4649Y-4.072
X5.4649Y-4.822
X6.2149Y-2.572
X6.2149Y-3.322
X6.2149Y-4.072
X6.2149Y-4.822
X6.9649Y-2.572
X6.9649Y-3.322
X6.9649Y-4.072
X6.9649Y-4.822
M30
