%TF.GenerationSoftware,KiCad,Pcbnew,8.0.1*%
%TF.CreationDate,2024-04-24T14:47:18+09:00*%
%TF.ProjectId,LegionKeys,4c656769-6f6e-44b6-9579-732e6b696361,rev?*%
%TF.SameCoordinates,Original*%
%TF.FileFunction,Soldermask,Top*%
%TF.FilePolarity,Negative*%
%FSLAX46Y46*%
G04 Gerber Fmt 4.6, Leading zero omitted, Abs format (unit mm)*
G04 Created by KiCad (PCBNEW 8.0.1) date 2024-04-24 14:47:18*
%MOMM*%
%LPD*%
G01*
G04 APERTURE LIST*
G04 Aperture macros list*
%AMRoundRect*
0 Rectangle with rounded corners*
0 $1 Rounding radius*
0 $2 $3 $4 $5 $6 $7 $8 $9 X,Y pos of 4 corners*
0 Add a 4 corners polygon primitive as box body*
4,1,4,$2,$3,$4,$5,$6,$7,$8,$9,$2,$3,0*
0 Add four circle primitives for the rounded corners*
1,1,$1+$1,$2,$3*
1,1,$1+$1,$4,$5*
1,1,$1+$1,$6,$7*
1,1,$1+$1,$8,$9*
0 Add four rect primitives between the rounded corners*
20,1,$1+$1,$2,$3,$4,$5,0*
20,1,$1+$1,$4,$5,$6,$7,0*
20,1,$1+$1,$6,$7,$8,$9,0*
20,1,$1+$1,$8,$9,$2,$3,0*%
%AMFreePoly0*
4,1,6,1.000000,0.000000,0.500000,-0.750000,-0.500000,-0.750000,-0.500000,0.750000,0.500000,0.750000,1.000000,0.000000,1.000000,0.000000,$1*%
%AMFreePoly1*
4,1,6,0.500000,-0.750000,-0.650000,-0.750000,-0.150000,0.000000,-0.650000,0.750000,0.500000,0.750000,0.500000,-0.750000,0.500000,-0.750000,$1*%
G04 Aperture macros list end*
%ADD10C,0.100000*%
%ADD11C,0.150000*%
%ADD12C,0.200000*%
%ADD13C,0.250000*%
%ADD14R,1.500000X1.000000*%
%ADD15R,1.600000X1.600000*%
%ADD16C,1.600000*%
%ADD17C,1.701800*%
%ADD18C,0.990600*%
%ADD19C,3.429000*%
%ADD20C,2.032000*%
%ADD21O,2.748280X1.998980*%
%ADD22C,1.500000*%
%ADD23FreePoly0,0.000000*%
%ADD24FreePoly1,0.000000*%
%ADD25C,3.400000*%
%ADD26RoundRect,0.250000X0.625000X-0.350000X0.625000X0.350000X-0.625000X0.350000X-0.625000X-0.350000X0*%
%ADD27C,1.524000*%
%ADD28C,1.000000*%
%ADD29R,1.700000X1.700000*%
%ADD30O,1.700000X1.700000*%
%ADD31C,2.000000*%
G04 APERTURE END LIST*
D10*
X68360000Y-133180000D02*
X210730000Y-133180000D01*
X210730000Y-135380000D01*
X68360000Y-135380000D01*
X68360000Y-133180000D01*
G36*
X68360000Y-133180000D02*
G01*
X210730000Y-133180000D01*
X210730000Y-135380000D01*
X68360000Y-135380000D01*
X68360000Y-133180000D01*
G37*
X210450000Y-60350000D02*
X210750000Y-60350000D01*
X210750000Y-70050000D01*
X210450000Y-70050000D01*
X210450000Y-60350000D01*
G36*
X210450000Y-60350000D02*
G01*
X210750000Y-60350000D01*
X210750000Y-70050000D01*
X210450000Y-70050000D01*
X210450000Y-60350000D01*
G37*
X208540000Y-69930000D02*
X210740000Y-69930000D01*
X210740000Y-135380000D01*
X208540000Y-135380000D01*
X208540000Y-69930000D01*
G36*
X208540000Y-69930000D02*
G01*
X210740000Y-69930000D01*
X210740000Y-135380000D01*
X208540000Y-135380000D01*
X208540000Y-69930000D01*
G37*
X68780000Y-55780000D02*
X70980000Y-55780000D01*
X70980000Y-135370000D01*
X68780000Y-135370000D01*
X68780000Y-55780000D01*
G36*
X68780000Y-55780000D02*
G01*
X70980000Y-55780000D01*
X70980000Y-135370000D01*
X68780000Y-135370000D01*
X68780000Y-55780000D01*
G37*
D11*
G36*
X210076216Y-69689438D02*
G01*
X210065274Y-69550952D01*
X210100517Y-69541903D01*
X210133015Y-69527090D01*
X210160663Y-69505011D01*
X210164778Y-69500345D01*
X210182883Y-69470864D01*
X210193473Y-69435080D01*
X210196579Y-69397079D01*
X210194320Y-69361096D01*
X210186513Y-69327396D01*
X210169783Y-69295684D01*
X210168027Y-69293471D01*
X210141062Y-69269629D01*
X210108103Y-69258900D01*
X210101006Y-69258593D01*
X210067025Y-69267568D01*
X210059119Y-69273297D01*
X210038369Y-69301946D01*
X210029028Y-69324417D01*
X210018566Y-69358614D01*
X210009006Y-69393490D01*
X210000037Y-69427590D01*
X209997228Y-69438454D01*
X209987783Y-69472532D01*
X209975633Y-69509029D01*
X209962594Y-69540729D01*
X209946257Y-69571650D01*
X209926104Y-69598995D01*
X209899138Y-69624310D01*
X209869701Y-69643407D01*
X209837793Y-69656286D01*
X209803415Y-69662948D01*
X209782660Y-69663963D01*
X209746110Y-69660367D01*
X209711217Y-69649579D01*
X209680933Y-69633531D01*
X209653448Y-69611782D01*
X209630404Y-69584791D01*
X209611801Y-69552557D01*
X209608613Y-69545481D01*
X209596629Y-69511205D01*
X209589269Y-69477604D01*
X209585009Y-69441054D01*
X209583822Y-69406653D01*
X209585279Y-69366796D01*
X209589649Y-69330144D01*
X209596933Y-69296698D01*
X209609519Y-69260795D01*
X209626301Y-69229507D01*
X209643491Y-69206960D01*
X209671502Y-69180616D01*
X209703326Y-69160374D01*
X209738962Y-69146236D01*
X209772541Y-69138975D01*
X209802664Y-69136350D01*
X209802664Y-69278768D01*
X209767457Y-69288521D01*
X209736897Y-69307375D01*
X209727266Y-69317920D01*
X209711488Y-69350009D01*
X209704997Y-69386682D01*
X209704185Y-69408192D01*
X209706623Y-69444269D01*
X209714935Y-69477938D01*
X209729147Y-69505303D01*
X209757902Y-69526086D01*
X209772231Y-69527871D01*
X209804961Y-69515946D01*
X209814119Y-69506671D01*
X209831245Y-69475696D01*
X209843170Y-69442998D01*
X209853938Y-69406481D01*
X209861819Y-69375879D01*
X209871344Y-69338803D01*
X209880941Y-69305538D01*
X209892229Y-69271545D01*
X209905250Y-69239048D01*
X209913452Y-69222177D01*
X209931795Y-69193202D01*
X209956330Y-69166228D01*
X209985431Y-69144385D01*
X210019340Y-69128324D01*
X210054549Y-69119509D01*
X210089806Y-69116286D01*
X210098100Y-69116175D01*
X210135389Y-69119465D01*
X210171176Y-69129332D01*
X210205460Y-69145778D01*
X210212137Y-69149856D01*
X210239882Y-69171006D01*
X210263300Y-69196565D01*
X210282390Y-69226533D01*
X210291125Y-69245087D01*
X210302420Y-69277753D01*
X210310487Y-69314201D01*
X210314899Y-69349197D01*
X210316841Y-69387089D01*
X210316942Y-69398447D01*
X210315443Y-69438712D01*
X210310948Y-69475948D01*
X210303455Y-69510152D01*
X210290508Y-69547198D01*
X210273246Y-69579880D01*
X210255563Y-69603782D01*
X210230505Y-69628620D01*
X210201491Y-69649407D01*
X210168523Y-69666142D01*
X210131599Y-69678827D01*
X210097809Y-69686303D01*
X210076216Y-69689438D01*
G37*
G36*
X210306000Y-68998719D02*
G01*
X209594764Y-68998719D01*
X209594764Y-68860233D01*
X210075361Y-68571807D01*
X209594764Y-68571807D01*
X209594764Y-68439647D01*
X210306000Y-68439647D01*
X210306000Y-68582407D01*
X209832584Y-68866559D01*
X210306000Y-68866559D01*
X210306000Y-68998719D01*
G37*
G36*
X209923027Y-68268164D02*
G01*
X209791722Y-68268164D01*
X209791722Y-68132927D01*
X209923027Y-68132927D01*
X209923027Y-68268164D01*
G37*
G36*
X210306000Y-68268164D02*
G01*
X210174695Y-68268164D01*
X210174695Y-68132927D01*
X210306000Y-68132927D01*
X210306000Y-68268164D01*
G37*
D12*
G36*
X207513579Y-64880963D02*
G01*
X207198262Y-64611807D01*
X207513579Y-64611807D01*
X207513579Y-64880963D01*
G37*
G36*
X207620298Y-63594139D02*
G01*
X207669600Y-63604036D01*
X207711660Y-63630683D01*
X207738954Y-63672266D01*
X207748053Y-63722763D01*
X207747895Y-63730141D01*
X207736679Y-63780913D01*
X207707752Y-63823635D01*
X207691558Y-63837663D01*
X207645356Y-63859108D01*
X207596378Y-63864912D01*
X207579361Y-63864298D01*
X207531067Y-63853814D01*
X207488667Y-63825589D01*
X207484112Y-63820569D01*
X207459318Y-63778172D01*
X207451053Y-63727404D01*
X207451091Y-63723865D01*
X207460762Y-63675136D01*
X207489888Y-63632149D01*
X207505687Y-63619034D01*
X207552170Y-63598985D01*
X207602728Y-63593558D01*
X207620298Y-63594139D01*
G37*
G36*
X208046742Y-69798040D02*
G01*
X206792838Y-69798040D01*
X206792838Y-69686929D01*
X206919581Y-69686929D01*
X207920000Y-69686929D01*
X207920000Y-68890209D01*
X207669895Y-68890209D01*
X207669895Y-69375764D01*
X206919581Y-69375764D01*
X206919581Y-69686929D01*
X206792838Y-69686929D01*
X206792838Y-68273251D01*
X206903949Y-68273251D01*
X206903996Y-68284005D01*
X206905649Y-68335699D01*
X206910750Y-68393167D01*
X206919251Y-68445654D01*
X206933466Y-68500595D01*
X206952309Y-68548757D01*
X206960353Y-68564906D01*
X206987221Y-68610398D01*
X207018193Y-68651460D01*
X207053269Y-68688090D01*
X207092450Y-68720290D01*
X207135736Y-68748060D01*
X207158734Y-68760194D01*
X207206986Y-68780882D01*
X207258242Y-68796796D01*
X207312504Y-68807936D01*
X207369772Y-68814301D01*
X207419790Y-68815959D01*
X207439040Y-68815717D01*
X207495139Y-68812082D01*
X207548766Y-68804085D01*
X207599919Y-68791726D01*
X207648600Y-68775004D01*
X207694808Y-68753921D01*
X207723804Y-68737561D01*
X207770103Y-68705128D01*
X207810745Y-68667857D01*
X207845730Y-68625748D01*
X207875059Y-68578799D01*
X207889255Y-68549494D01*
X207907001Y-68501658D01*
X207920488Y-68449167D01*
X207929716Y-68392023D01*
X207934152Y-68340848D01*
X207935631Y-68286441D01*
X207934749Y-68241846D01*
X207931360Y-68190898D01*
X207924194Y-68134998D01*
X207913568Y-68082907D01*
X207899483Y-68034626D01*
X207894715Y-68021221D01*
X207874088Y-67972351D01*
X207851534Y-67928044D01*
X207824480Y-67881504D01*
X207792927Y-67832732D01*
X207763196Y-67790383D01*
X207357264Y-67790383D01*
X207357264Y-68271053D01*
X207591737Y-68271053D01*
X207591737Y-68062958D01*
X207655973Y-68062958D01*
X207660472Y-68074289D01*
X207678116Y-68124044D01*
X207690900Y-68171646D01*
X207698593Y-68220190D01*
X207701158Y-68271053D01*
X207699554Y-68304219D01*
X207688582Y-68357967D01*
X207667217Y-68404065D01*
X207635457Y-68442512D01*
X207617657Y-68456937D01*
X207573816Y-68480018D01*
X207526438Y-68493903D01*
X207470646Y-68501897D01*
X207416127Y-68504061D01*
X207398386Y-68503823D01*
X207348807Y-68500260D01*
X207297867Y-68490698D01*
X207248751Y-68472643D01*
X207205101Y-68443244D01*
X207185892Y-68423226D01*
X207159520Y-68382083D01*
X207143697Y-68334371D01*
X207138422Y-68280090D01*
X207138865Y-68263314D01*
X207146418Y-68214062D01*
X207166755Y-68167250D01*
X207168534Y-68164497D01*
X207203629Y-68127326D01*
X207247843Y-68104235D01*
X207198018Y-67804061D01*
X207167430Y-67813348D01*
X207116700Y-67833400D01*
X207071534Y-67857741D01*
X207031933Y-67886371D01*
X207023855Y-67893290D01*
X206987534Y-67931205D01*
X206957986Y-67974653D01*
X206935212Y-68023635D01*
X206921535Y-68070286D01*
X206912773Y-68119720D01*
X206907643Y-68168492D01*
X206904713Y-68223172D01*
X206903949Y-68273251D01*
X206792838Y-68273251D01*
X206792838Y-67610376D01*
X206919581Y-67610376D01*
X207920000Y-67610376D01*
X207920000Y-67299211D01*
X207675757Y-67299211D01*
X207508450Y-67138499D01*
X207920000Y-66926252D01*
X207920000Y-66543035D01*
X207296936Y-66926252D01*
X206919581Y-66559399D01*
X206919581Y-66972903D01*
X207297669Y-67299211D01*
X206919581Y-67299211D01*
X206919581Y-67610376D01*
X206792838Y-67610376D01*
X206792838Y-66111702D01*
X207435422Y-66111702D01*
X207435422Y-66518367D01*
X207654263Y-66518367D01*
X207654263Y-66111702D01*
X207435422Y-66111702D01*
X206792838Y-66111702D01*
X206792838Y-65619553D01*
X206903949Y-65619553D01*
X206904088Y-65637020D01*
X206906163Y-65686536D01*
X206911731Y-65738836D01*
X206922245Y-65791394D01*
X206939364Y-65841325D01*
X206943882Y-65851169D01*
X206970105Y-65896177D01*
X207002386Y-65934173D01*
X207040725Y-65965157D01*
X207076950Y-65985429D01*
X207125475Y-66004148D01*
X207175518Y-66017154D01*
X207224640Y-66025729D01*
X207247843Y-65745338D01*
X207221883Y-65741132D01*
X207170088Y-65726609D01*
X207126210Y-65699665D01*
X207100198Y-65660769D01*
X207091528Y-65611981D01*
X207097652Y-65570254D01*
X207123524Y-65526496D01*
X207151737Y-65504515D01*
X207200949Y-65492547D01*
X207246703Y-65502266D01*
X207289364Y-65526985D01*
X207326406Y-65560999D01*
X207359798Y-65598932D01*
X207393475Y-65641241D01*
X207425652Y-65684277D01*
X207461735Y-65732592D01*
X207496711Y-65776906D01*
X207530581Y-65817222D01*
X207563344Y-65853538D01*
X207602741Y-65893308D01*
X207640409Y-65926829D01*
X207683328Y-65958806D01*
X207711283Y-65976147D01*
X207761323Y-66002087D01*
X207812789Y-66022416D01*
X207865681Y-66037136D01*
X207920000Y-66046245D01*
X207920000Y-65206782D01*
X207685526Y-65206782D01*
X207685526Y-65643733D01*
X207657700Y-65614071D01*
X207625443Y-65576810D01*
X207603381Y-65547513D01*
X207574648Y-65506837D01*
X207545087Y-65463726D01*
X207514721Y-65421457D01*
X207479321Y-65376417D01*
X207445054Y-65337577D01*
X207406509Y-65300099D01*
X207364347Y-65267599D01*
X207338434Y-65252049D01*
X207290830Y-65230700D01*
X207241989Y-65217891D01*
X207191912Y-65213621D01*
X207181352Y-65213805D01*
X207130500Y-65220250D01*
X207082891Y-65235902D01*
X207038527Y-65260760D01*
X207030117Y-65266760D01*
X206992216Y-65300911D01*
X206961233Y-65341979D01*
X206937166Y-65389965D01*
X206929381Y-65411504D01*
X206916925Y-65460719D01*
X206909431Y-65510494D01*
X206905117Y-65566533D01*
X206903949Y-65619553D01*
X206792838Y-65619553D01*
X206792838Y-64611807D01*
X206903949Y-64611807D01*
X207515778Y-65121542D01*
X207748053Y-65121542D01*
X207748053Y-64611807D01*
X207920000Y-64611807D01*
X207920000Y-64368053D01*
X207748053Y-64368053D01*
X207748053Y-64241535D01*
X207513579Y-64241535D01*
X207513579Y-64368053D01*
X206903949Y-64368053D01*
X206903949Y-64611807D01*
X206792838Y-64611807D01*
X206792838Y-63725450D01*
X206903949Y-63725450D01*
X206904440Y-63750535D01*
X206909957Y-63810218D01*
X206921603Y-63865572D01*
X206939380Y-63916598D01*
X206963287Y-63963293D01*
X206993324Y-64005660D01*
X207029490Y-64043698D01*
X207054300Y-64064169D01*
X207101297Y-64093814D01*
X207155355Y-64117865D01*
X207203685Y-64133078D01*
X207256533Y-64144712D01*
X207313899Y-64152767D01*
X207375784Y-64157241D01*
X207425163Y-64158248D01*
X207459104Y-64157769D01*
X207512847Y-64154844D01*
X207563060Y-64149259D01*
X207618655Y-64139046D01*
X207669168Y-64125004D01*
X207721674Y-64103782D01*
X207735420Y-64096800D01*
X207779787Y-64070109D01*
X207818333Y-64039912D01*
X207855260Y-64001108D01*
X207884584Y-63957725D01*
X207901932Y-63921366D01*
X207917635Y-63873629D01*
X207928453Y-63820166D01*
X207933836Y-63769783D01*
X207935631Y-63715191D01*
X207933668Y-63662278D01*
X207926615Y-63606728D01*
X207914433Y-63556429D01*
X207894598Y-63506120D01*
X207880745Y-63480911D01*
X207851001Y-63440042D01*
X207815074Y-63404970D01*
X207772965Y-63375694D01*
X207747372Y-63362114D01*
X207699261Y-63343470D01*
X207648523Y-63332284D01*
X207595157Y-63328555D01*
X207551353Y-63330827D01*
X207502031Y-63339551D01*
X207448960Y-63357999D01*
X207400704Y-63385352D01*
X207357264Y-63421612D01*
X207330245Y-63451705D01*
X207300111Y-63497243D01*
X207278954Y-63546754D01*
X207266772Y-63600239D01*
X207263475Y-63649246D01*
X207264402Y-63674765D01*
X207272774Y-63726052D01*
X207273278Y-63727404D01*
X207289853Y-63771856D01*
X207306970Y-63801319D01*
X207336886Y-63839942D01*
X207371430Y-63874682D01*
X207314664Y-63869312D01*
X207258442Y-63861746D01*
X207207384Y-63851381D01*
X207160160Y-63834138D01*
X207136836Y-63818885D01*
X207102855Y-63778591D01*
X207091528Y-63728381D01*
X207092856Y-63710215D01*
X207112777Y-63664877D01*
X207137000Y-63645076D01*
X207185317Y-63627997D01*
X207155031Y-63349804D01*
X207105615Y-63366934D01*
X207057703Y-63390792D01*
X207016545Y-63419902D01*
X206984646Y-63450938D01*
X206955562Y-63490477D01*
X206932770Y-63535673D01*
X206920161Y-63573637D01*
X206910282Y-63623902D01*
X206905328Y-63675296D01*
X206903949Y-63725450D01*
X206792838Y-63725450D01*
X206792838Y-63217444D01*
X208046742Y-63217444D01*
X208046742Y-69798040D01*
G37*
D11*
G36*
X208806000Y-69578346D02*
G01*
X208094764Y-69746580D01*
X208094764Y-69600914D01*
X208583397Y-69494741D01*
X208094764Y-69365830D01*
X208094764Y-69196570D01*
X208591603Y-69072958D01*
X208094764Y-68964734D01*
X208094764Y-68821461D01*
X208806000Y-68992602D01*
X208806000Y-69143569D01*
X208274283Y-69284106D01*
X208806000Y-69423960D01*
X208806000Y-69578346D01*
G37*
G36*
X208215127Y-68762990D02*
G01*
X208094764Y-68762990D01*
X208094764Y-68627752D01*
X208215127Y-68627752D01*
X208215127Y-68762990D01*
G37*
G36*
X208806000Y-68762990D02*
G01*
X208291722Y-68762990D01*
X208291722Y-68627752D01*
X208806000Y-68627752D01*
X208806000Y-68762990D01*
G37*
G36*
X208806000Y-68361381D02*
G01*
X208806000Y-68496448D01*
X208291722Y-68496448D01*
X208291722Y-68370956D01*
X208364384Y-68370956D01*
X208335676Y-68351501D01*
X208308690Y-68328107D01*
X208296851Y-68313168D01*
X208283432Y-68280039D01*
X208280780Y-68254525D01*
X208284675Y-68220384D01*
X208296359Y-68187206D01*
X208308477Y-68165621D01*
X208434311Y-68207508D01*
X208418357Y-68238476D01*
X208412085Y-68270938D01*
X208418711Y-68304507D01*
X208427472Y-68319152D01*
X208456390Y-68340456D01*
X208483037Y-68350097D01*
X208520946Y-68356522D01*
X208555904Y-68359221D01*
X208592576Y-68360676D01*
X208627864Y-68361282D01*
X208651101Y-68361381D01*
X208806000Y-68361381D01*
G37*
G36*
X208587158Y-67672201D02*
G01*
X208587158Y-68010722D01*
X208623349Y-68006945D01*
X208656911Y-67996041D01*
X208683927Y-67978066D01*
X208706288Y-67950106D01*
X208717249Y-67917066D01*
X208718463Y-67900104D01*
X208712978Y-67866100D01*
X208702905Y-67846933D01*
X208676044Y-67823932D01*
X208652810Y-67814106D01*
X208674695Y-67679382D01*
X208707414Y-67694256D01*
X208739267Y-67715486D01*
X208765874Y-67741476D01*
X208780696Y-67761448D01*
X208798217Y-67795127D01*
X208808977Y-67828811D01*
X208815207Y-67866021D01*
X208816942Y-67901472D01*
X208814809Y-67941451D01*
X208808410Y-67978041D01*
X208797745Y-68011242D01*
X208779316Y-68046608D01*
X208754745Y-68077095D01*
X208729576Y-68098771D01*
X208697157Y-68118424D01*
X208661237Y-68133249D01*
X208627662Y-68142115D01*
X208591514Y-68147434D01*
X208552793Y-68149207D01*
X208514288Y-68147588D01*
X208478488Y-68142729D01*
X208439098Y-68132623D01*
X208403603Y-68117853D01*
X208372003Y-68098419D01*
X208353100Y-68082871D01*
X208328522Y-68056757D01*
X208309030Y-68028166D01*
X208294622Y-67997099D01*
X208285300Y-67963555D01*
X208281062Y-67927536D01*
X208280780Y-67914979D01*
X208281210Y-67906943D01*
X208379258Y-67906943D01*
X208385443Y-67942627D01*
X208403998Y-67972486D01*
X208411572Y-67979947D01*
X208441774Y-67998570D01*
X208476416Y-68007145D01*
X208499621Y-68008328D01*
X208499621Y-67806413D01*
X208465527Y-67809956D01*
X208431932Y-67821304D01*
X208410033Y-67836674D01*
X208388996Y-67864345D01*
X208379529Y-67899295D01*
X208379258Y-67906943D01*
X208281210Y-67906943D01*
X208282620Y-67880568D01*
X208289689Y-67842373D01*
X208302059Y-67807555D01*
X208319730Y-67776115D01*
X208342703Y-67748053D01*
X208356177Y-67735289D01*
X208387271Y-67712963D01*
X208424002Y-67695482D01*
X208458918Y-67684616D01*
X208497749Y-67677113D01*
X208540496Y-67672975D01*
X208577512Y-67672087D01*
X208587158Y-67672201D01*
G37*
G36*
X208806000Y-67564832D02*
G01*
X208094764Y-67564832D01*
X208094764Y-67429595D01*
X208806000Y-67429595D01*
X208806000Y-67564832D01*
G37*
G36*
X208587158Y-66854965D02*
G01*
X208587158Y-67193485D01*
X208623349Y-67189708D01*
X208656911Y-67178805D01*
X208683927Y-67160830D01*
X208706288Y-67132869D01*
X208717249Y-67099830D01*
X208718463Y-67082868D01*
X208712978Y-67048864D01*
X208702905Y-67029696D01*
X208676044Y-67006695D01*
X208652810Y-66996870D01*
X208674695Y-66862145D01*
X208707414Y-66877020D01*
X208739267Y-66898249D01*
X208765874Y-66924240D01*
X208780696Y-66944211D01*
X208798217Y-66977890D01*
X208808977Y-67011574D01*
X208815207Y-67048784D01*
X208816942Y-67084235D01*
X208814809Y-67124215D01*
X208808410Y-67160805D01*
X208797745Y-67194005D01*
X208779316Y-67229372D01*
X208754745Y-67259858D01*
X208729576Y-67281535D01*
X208697157Y-67301187D01*
X208661237Y-67316013D01*
X208627662Y-67324878D01*
X208591514Y-67330198D01*
X208552793Y-67331971D01*
X208514288Y-67330351D01*
X208478488Y-67325493D01*
X208439098Y-67315387D01*
X208403603Y-67300617D01*
X208372003Y-67281182D01*
X208353100Y-67265635D01*
X208328522Y-67239520D01*
X208309030Y-67210929D01*
X208294622Y-67179862D01*
X208285300Y-67146319D01*
X208281062Y-67110299D01*
X208280780Y-67097742D01*
X208281210Y-67089706D01*
X208379258Y-67089706D01*
X208385443Y-67125390D01*
X208403998Y-67155249D01*
X208411572Y-67162711D01*
X208441774Y-67181334D01*
X208476416Y-67189909D01*
X208499621Y-67191092D01*
X208499621Y-66989176D01*
X208465527Y-66992719D01*
X208431932Y-67004067D01*
X208410033Y-67019438D01*
X208388996Y-67047109D01*
X208379529Y-67082058D01*
X208379258Y-67089706D01*
X208281210Y-67089706D01*
X208282620Y-67063332D01*
X208289689Y-67025136D01*
X208302059Y-66990318D01*
X208319730Y-66958878D01*
X208342703Y-66930817D01*
X208356177Y-66918053D01*
X208387271Y-66895727D01*
X208424002Y-66878246D01*
X208458918Y-66867379D01*
X208497749Y-66859877D01*
X208540496Y-66855738D01*
X208577512Y-66854850D01*
X208587158Y-66854965D01*
G37*
G36*
X208663752Y-66795125D02*
G01*
X208641868Y-66659546D01*
X208674951Y-66646424D01*
X208698972Y-66624497D01*
X208713590Y-66592697D01*
X208718387Y-66556176D01*
X208718463Y-66550296D01*
X208715746Y-66514689D01*
X208704709Y-66480391D01*
X208699143Y-66471479D01*
X208668606Y-66453976D01*
X208663069Y-66453698D01*
X208637594Y-66463272D01*
X208622939Y-66496256D01*
X208619813Y-66508579D01*
X208610891Y-66547571D01*
X208602161Y-66582823D01*
X208591518Y-66621629D01*
X208581177Y-66654590D01*
X208567203Y-66690920D01*
X208553819Y-66715795D01*
X208531016Y-66742274D01*
X208500509Y-66763020D01*
X208464862Y-66774191D01*
X208438243Y-66776318D01*
X208402427Y-66772180D01*
X208369992Y-66759765D01*
X208340938Y-66739073D01*
X208326258Y-66724002D01*
X208306361Y-66694157D01*
X208293615Y-66662134D01*
X208285221Y-66624598D01*
X208281490Y-66588035D01*
X208280780Y-66561409D01*
X208282042Y-66524001D01*
X208286705Y-66485144D01*
X208294805Y-66451441D01*
X208308268Y-66419234D01*
X208316683Y-66405655D01*
X208339611Y-66379429D01*
X208368002Y-66358261D01*
X208401857Y-66342151D01*
X208423027Y-66335387D01*
X208444911Y-66462930D01*
X208412392Y-66477859D01*
X208396184Y-66494047D01*
X208382498Y-66525795D01*
X208379258Y-66559016D01*
X208381350Y-66594767D01*
X208390647Y-66629196D01*
X208394133Y-66635439D01*
X208421659Y-66650826D01*
X208446108Y-66637320D01*
X208460053Y-66604165D01*
X208469932Y-66569821D01*
X208479715Y-66530584D01*
X208484234Y-66511144D01*
X208493799Y-66472972D01*
X208504157Y-66439369D01*
X208517245Y-66405938D01*
X208533524Y-66375345D01*
X208544415Y-66360348D01*
X208572611Y-66336306D01*
X208607594Y-66322243D01*
X208645288Y-66318119D01*
X208683272Y-66322758D01*
X208718173Y-66336674D01*
X208746607Y-66356832D01*
X208766334Y-66376762D01*
X208786053Y-66405109D01*
X208800929Y-66438840D01*
X208809825Y-66472037D01*
X208815162Y-66509189D01*
X208816942Y-66550296D01*
X208815493Y-66587937D01*
X208811147Y-66622512D01*
X208802416Y-66658976D01*
X208789741Y-66691267D01*
X208775738Y-66715624D01*
X208753287Y-66743353D01*
X208727140Y-66765846D01*
X208697295Y-66783104D01*
X208663752Y-66795125D01*
G37*
G36*
X208663752Y-66250073D02*
G01*
X208641868Y-66114494D01*
X208674951Y-66101372D01*
X208698972Y-66079445D01*
X208713590Y-66047644D01*
X208718387Y-66011124D01*
X208718463Y-66005244D01*
X208715746Y-65969637D01*
X208704709Y-65935338D01*
X208699143Y-65926427D01*
X208668606Y-65908924D01*
X208663069Y-65908646D01*
X208637594Y-65918220D01*
X208622939Y-65951203D01*
X208619813Y-65963527D01*
X208610891Y-66002519D01*
X208602161Y-66037771D01*
X208591518Y-66076576D01*
X208581177Y-66109538D01*
X208567203Y-66145867D01*
X208553819Y-66170743D01*
X208531016Y-66197222D01*
X208500509Y-66217967D01*
X208464862Y-66229138D01*
X208438243Y-66231266D01*
X208402427Y-66227128D01*
X208369992Y-66214713D01*
X208340938Y-66194021D01*
X208326258Y-66178949D01*
X208306361Y-66149104D01*
X208293615Y-66117082D01*
X208285221Y-66079546D01*
X208281490Y-66042983D01*
X208280780Y-66016357D01*
X208282042Y-65978948D01*
X208286705Y-65940091D01*
X208294805Y-65906388D01*
X208308268Y-65874182D01*
X208316683Y-65860603D01*
X208339611Y-65834377D01*
X208368002Y-65813209D01*
X208401857Y-65797099D01*
X208423027Y-65790334D01*
X208444911Y-65917878D01*
X208412392Y-65932807D01*
X208396184Y-65948995D01*
X208382498Y-65980743D01*
X208379258Y-66013963D01*
X208381350Y-66049715D01*
X208390647Y-66084144D01*
X208394133Y-66090387D01*
X208421659Y-66105774D01*
X208446108Y-66092267D01*
X208460053Y-66059113D01*
X208469932Y-66024769D01*
X208479715Y-65985532D01*
X208484234Y-65966092D01*
X208493799Y-65927920D01*
X208504157Y-65894316D01*
X208517245Y-65860886D01*
X208533524Y-65830293D01*
X208544415Y-65815296D01*
X208572611Y-65791253D01*
X208607594Y-65777190D01*
X208645288Y-65773066D01*
X208683272Y-65777705D01*
X208718173Y-65791621D01*
X208746607Y-65811780D01*
X208766334Y-65831709D01*
X208786053Y-65860057D01*
X208800929Y-65893788D01*
X208809825Y-65926985D01*
X208815162Y-65964137D01*
X208816942Y-66005244D01*
X208815493Y-66042885D01*
X208811147Y-66077460D01*
X208802416Y-66113923D01*
X208789741Y-66146215D01*
X208775738Y-66170572D01*
X208753287Y-66198301D01*
X208727140Y-66220794D01*
X208697295Y-66238051D01*
X208663752Y-66250073D01*
G37*
G36*
X208806000Y-65382400D02*
G01*
X208094764Y-65382400D01*
X208094764Y-65239982D01*
X208409178Y-65239982D01*
X208094764Y-64952411D01*
X208094764Y-64761095D01*
X208371736Y-65026441D01*
X208806000Y-64746734D01*
X208806000Y-64930868D01*
X208474831Y-65124577D01*
X208592116Y-65239982D01*
X208806000Y-65239982D01*
X208806000Y-65382400D01*
G37*
G36*
X208587158Y-64240491D02*
G01*
X208587158Y-64579012D01*
X208623349Y-64575235D01*
X208656911Y-64564332D01*
X208683927Y-64546357D01*
X208706288Y-64518396D01*
X208717249Y-64485357D01*
X208718463Y-64468394D01*
X208712978Y-64434391D01*
X208702905Y-64415223D01*
X208676044Y-64392222D01*
X208652810Y-64382397D01*
X208674695Y-64247672D01*
X208707414Y-64262547D01*
X208739267Y-64283776D01*
X208765874Y-64309766D01*
X208780696Y-64329738D01*
X208798217Y-64363417D01*
X208808977Y-64397101D01*
X208815207Y-64434311D01*
X208816942Y-64469762D01*
X208814809Y-64509741D01*
X208808410Y-64546331D01*
X208797745Y-64579532D01*
X208779316Y-64614899D01*
X208754745Y-64645385D01*
X208729576Y-64667062D01*
X208697157Y-64686714D01*
X208661237Y-64701539D01*
X208627662Y-64710405D01*
X208591514Y-64715725D01*
X208552793Y-64717498D01*
X208514288Y-64715878D01*
X208478488Y-64711020D01*
X208439098Y-64700914D01*
X208403603Y-64686143D01*
X208372003Y-64666709D01*
X208353100Y-64651161D01*
X208328522Y-64625047D01*
X208309030Y-64596456D01*
X208294622Y-64565389D01*
X208285300Y-64531846D01*
X208281062Y-64495826D01*
X208280780Y-64483269D01*
X208281210Y-64475233D01*
X208379258Y-64475233D01*
X208385443Y-64510917D01*
X208403998Y-64540776D01*
X208411572Y-64548237D01*
X208441774Y-64566861D01*
X208476416Y-64575436D01*
X208499621Y-64576618D01*
X208499621Y-64374703D01*
X208465527Y-64378246D01*
X208431932Y-64389594D01*
X208410033Y-64404965D01*
X208388996Y-64432636D01*
X208379529Y-64467585D01*
X208379258Y-64475233D01*
X208281210Y-64475233D01*
X208282620Y-64448859D01*
X208289689Y-64410663D01*
X208302059Y-64375845D01*
X208319730Y-64344405D01*
X208342703Y-64316344D01*
X208356177Y-64303579D01*
X208387271Y-64281254D01*
X208424002Y-64263773D01*
X208458918Y-64252906D01*
X208497749Y-64245404D01*
X208540496Y-64241265D01*
X208577512Y-64240377D01*
X208587158Y-64240491D01*
G37*
G36*
X208291722Y-64197065D02*
G01*
X208291722Y-64053279D01*
X208655888Y-63931036D01*
X208291722Y-63811870D01*
X208291722Y-63671845D01*
X208787364Y-63852219D01*
X208882081Y-63884361D01*
X208913591Y-63898554D01*
X208944662Y-63916348D01*
X208947563Y-63918384D01*
X208973502Y-63941539D01*
X208984150Y-63955314D01*
X208999900Y-63986887D01*
X209006034Y-64006775D01*
X209012171Y-64041511D01*
X209013899Y-64075847D01*
X209012246Y-64112054D01*
X209007287Y-64147585D01*
X209006376Y-64152271D01*
X208908411Y-64164239D01*
X208914079Y-64130465D01*
X208915420Y-64106964D01*
X208910313Y-64072798D01*
X208891728Y-64043403D01*
X208884475Y-64037379D01*
X208854307Y-64019544D01*
X208820493Y-64006675D01*
X208806000Y-64002672D01*
X208291722Y-64197065D01*
G37*
G36*
X208583124Y-63096683D02*
G01*
X208619749Y-63101241D01*
X208653435Y-63108838D01*
X208689980Y-63121965D01*
X208722294Y-63139468D01*
X208745989Y-63157397D01*
X208770102Y-63181672D01*
X208791928Y-63212363D01*
X208806964Y-63245606D01*
X208815209Y-63281403D01*
X208816942Y-63308534D01*
X208813386Y-63343898D01*
X208802720Y-63378867D01*
X208795399Y-63394874D01*
X208776237Y-63425144D01*
X208751065Y-63452095D01*
X208730944Y-63468220D01*
X208806000Y-63468220D01*
X208806000Y-63593712D01*
X208094764Y-63593712D01*
X208094764Y-63458646D01*
X208351903Y-63458646D01*
X208327732Y-63434375D01*
X208305853Y-63404022D01*
X208290781Y-63371478D01*
X208284876Y-63346660D01*
X208379258Y-63346660D01*
X208384836Y-63380793D01*
X208403468Y-63412615D01*
X208418923Y-63427529D01*
X208450944Y-63445829D01*
X208484386Y-63455151D01*
X208519585Y-63459169D01*
X208539115Y-63459672D01*
X208573398Y-63458477D01*
X208607509Y-63454187D01*
X208642545Y-63444436D01*
X208662043Y-63434710D01*
X208689316Y-63413087D01*
X208709151Y-63384810D01*
X208718242Y-63348537D01*
X208718463Y-63341360D01*
X208711860Y-63307166D01*
X208692052Y-63277373D01*
X208678456Y-63265108D01*
X208645399Y-63247197D01*
X208610268Y-63238073D01*
X208572933Y-63234141D01*
X208552109Y-63233649D01*
X208514463Y-63235171D01*
X208477429Y-63240637D01*
X208443404Y-63251537D01*
X208419949Y-63265450D01*
X208395153Y-63291696D01*
X208381206Y-63325828D01*
X208379258Y-63346660D01*
X208284876Y-63346660D01*
X208282516Y-63336740D01*
X208280780Y-63310586D01*
X208284028Y-63271291D01*
X208293771Y-63235090D01*
X208310011Y-63201981D01*
X208332747Y-63171964D01*
X208348655Y-63156200D01*
X208376188Y-63135457D01*
X208407880Y-63119006D01*
X208443731Y-63106846D01*
X208483742Y-63098978D01*
X208520262Y-63095700D01*
X208543561Y-63095163D01*
X208583124Y-63096683D01*
G37*
G36*
X208582856Y-62495690D02*
G01*
X208622734Y-62502711D01*
X208659824Y-62514997D01*
X208694125Y-62532548D01*
X208725637Y-62555364D01*
X208740347Y-62568747D01*
X208766377Y-62598123D01*
X208787022Y-62630216D01*
X208802281Y-62665026D01*
X208812154Y-62702552D01*
X208816642Y-62742796D01*
X208816942Y-62756814D01*
X208814954Y-62791542D01*
X208808991Y-62825458D01*
X208799054Y-62858562D01*
X208785141Y-62890854D01*
X208767307Y-62920753D01*
X208742824Y-62949841D01*
X208713662Y-62974115D01*
X208691621Y-62987623D01*
X208659168Y-63002134D01*
X208623361Y-63012500D01*
X208589277Y-63018168D01*
X208552624Y-63020662D01*
X208541680Y-63020792D01*
X208503948Y-63018168D01*
X208466919Y-63010297D01*
X208434595Y-62998895D01*
X208410717Y-62987623D01*
X208380957Y-62969308D01*
X208351948Y-62944565D01*
X208327673Y-62915441D01*
X208314119Y-62893590D01*
X208299533Y-62862281D01*
X208289114Y-62829220D01*
X208282863Y-62794406D01*
X208280780Y-62757840D01*
X208280807Y-62757327D01*
X208379258Y-62757327D01*
X208384430Y-62791667D01*
X208401869Y-62824614D01*
X208423027Y-62846231D01*
X208454048Y-62865255D01*
X208488420Y-62876352D01*
X208524105Y-62881425D01*
X208548861Y-62882306D01*
X208587575Y-62880051D01*
X208621480Y-62873287D01*
X208653876Y-62860288D01*
X208674866Y-62846231D01*
X208699687Y-62819450D01*
X208715014Y-62785718D01*
X208718463Y-62757327D01*
X208713311Y-62723027D01*
X208695940Y-62690216D01*
X208674866Y-62668764D01*
X208643653Y-62649831D01*
X208608967Y-62638786D01*
X208572890Y-62633737D01*
X208547835Y-62632861D01*
X208509580Y-62635105D01*
X208476027Y-62641837D01*
X208443900Y-62654775D01*
X208423027Y-62668764D01*
X208398108Y-62695351D01*
X208382721Y-62728962D01*
X208379258Y-62757327D01*
X208280807Y-62757327D01*
X208282625Y-62722638D01*
X208289709Y-62683096D01*
X208302107Y-62646499D01*
X208319819Y-62612847D01*
X208342843Y-62582141D01*
X208356348Y-62567892D01*
X208386093Y-62542733D01*
X208418651Y-62522780D01*
X208454022Y-62508032D01*
X208492205Y-62498489D01*
X208526174Y-62494513D01*
X208547493Y-62493862D01*
X208582856Y-62495690D01*
G37*
G36*
X208806000Y-62080969D02*
G01*
X208772604Y-62091617D01*
X208764283Y-62093963D01*
X208747699Y-62098750D01*
X208771277Y-62125454D01*
X208791284Y-62155902D01*
X208799674Y-62172951D01*
X208810854Y-62205804D01*
X208816335Y-62240463D01*
X208816942Y-62257069D01*
X208814227Y-62294393D01*
X208804686Y-62331403D01*
X208788273Y-62363137D01*
X208773515Y-62381364D01*
X208747262Y-62403348D01*
X208713809Y-62419336D01*
X208679848Y-62426131D01*
X208663581Y-62426842D01*
X208629461Y-62423428D01*
X208596250Y-62412114D01*
X208585277Y-62406154D01*
X208558167Y-62384879D01*
X208537275Y-62357254D01*
X208532448Y-62348196D01*
X208519376Y-62315602D01*
X208509475Y-62281351D01*
X208501335Y-62245015D01*
X208500476Y-62240655D01*
X208492670Y-62201998D01*
X208484049Y-62164631D01*
X208474734Y-62131277D01*
X208466795Y-62109351D01*
X208565274Y-62109351D01*
X208574292Y-62142903D01*
X208582122Y-62177998D01*
X208584935Y-62191587D01*
X208592653Y-62225652D01*
X208603734Y-62258756D01*
X208607161Y-62265104D01*
X208633127Y-62287878D01*
X208652297Y-62291605D01*
X208685966Y-62281584D01*
X208698972Y-62270404D01*
X208715722Y-62239429D01*
X208718463Y-62216549D01*
X208712778Y-62180816D01*
X208697123Y-62148869D01*
X208695724Y-62146793D01*
X208670987Y-62122777D01*
X208653323Y-62114651D01*
X208618969Y-62109977D01*
X208590748Y-62109351D01*
X208565274Y-62109351D01*
X208466795Y-62109351D01*
X208452946Y-62109351D01*
X208418838Y-62114180D01*
X208396184Y-62128670D01*
X208382498Y-62161032D01*
X208379275Y-62197861D01*
X208379258Y-62201161D01*
X208383857Y-62236769D01*
X208393791Y-62257581D01*
X208420572Y-62279794D01*
X208444911Y-62290237D01*
X208423027Y-62412822D01*
X208389132Y-62400619D01*
X208356620Y-62382446D01*
X208330059Y-62359566D01*
X208315658Y-62341699D01*
X208298798Y-62309364D01*
X208288443Y-62274129D01*
X208282960Y-62238283D01*
X208280916Y-62203834D01*
X208280780Y-62191587D01*
X208281811Y-62154235D01*
X208285513Y-62116977D01*
X208292897Y-62081985D01*
X208302322Y-62057034D01*
X208320113Y-62027525D01*
X208345003Y-62002458D01*
X208357032Y-61994801D01*
X208389594Y-61983757D01*
X208424271Y-61978819D01*
X208462475Y-61976837D01*
X208478592Y-61976678D01*
X208637252Y-61978217D01*
X208672523Y-61977703D01*
X208707991Y-61975679D01*
X208737099Y-61971720D01*
X208770395Y-61962402D01*
X208803707Y-61948542D01*
X208806000Y-61947442D01*
X208806000Y-62080969D01*
G37*
G36*
X208806000Y-61716803D02*
G01*
X208806000Y-61851870D01*
X208291722Y-61851870D01*
X208291722Y-61726378D01*
X208364384Y-61726378D01*
X208335676Y-61706923D01*
X208308690Y-61683529D01*
X208296851Y-61668590D01*
X208283432Y-61635462D01*
X208280780Y-61609947D01*
X208284675Y-61575807D01*
X208296359Y-61542628D01*
X208308477Y-61521043D01*
X208434311Y-61562930D01*
X208418357Y-61593898D01*
X208412085Y-61626360D01*
X208418711Y-61659929D01*
X208427472Y-61674574D01*
X208456390Y-61695878D01*
X208483037Y-61705519D01*
X208520946Y-61711944D01*
X208555904Y-61714644D01*
X208592576Y-61716098D01*
X208627864Y-61716704D01*
X208651101Y-61716803D01*
X208806000Y-61716803D01*
G37*
G36*
X208806000Y-61122341D02*
G01*
X208730944Y-61122341D01*
X208758368Y-61145184D01*
X208782202Y-61173146D01*
X208795912Y-61196200D01*
X208808727Y-61228225D01*
X208815935Y-61263135D01*
X208816942Y-61282027D01*
X208813538Y-61319338D01*
X208803328Y-61354227D01*
X208786311Y-61386694D01*
X208762488Y-61416740D01*
X208745818Y-61432822D01*
X208717105Y-61454146D01*
X208684437Y-61471058D01*
X208647814Y-61483558D01*
X208614274Y-61490605D01*
X208577987Y-61494588D01*
X208546980Y-61495568D01*
X208507742Y-61494078D01*
X208471559Y-61489608D01*
X208432174Y-61480309D01*
X208397188Y-61466719D01*
X208366601Y-61448837D01*
X208348655Y-61434532D01*
X208322207Y-61406224D01*
X208302256Y-61374856D01*
X208288800Y-61340428D01*
X208281840Y-61302941D01*
X208280780Y-61280146D01*
X208284107Y-61244584D01*
X208379258Y-61244584D01*
X208384908Y-61278428D01*
X208403781Y-61310155D01*
X208419436Y-61325111D01*
X208451628Y-61343606D01*
X208484939Y-61353027D01*
X208519817Y-61357088D01*
X208539115Y-61357595D01*
X208574324Y-61356516D01*
X208609012Y-61352637D01*
X208644047Y-61343821D01*
X208663069Y-61335027D01*
X208692280Y-61312063D01*
X208711917Y-61280902D01*
X208718409Y-61247209D01*
X208718463Y-61243558D01*
X208711606Y-61208060D01*
X208691036Y-61177132D01*
X208676917Y-61164399D01*
X208646927Y-61147089D01*
X208613056Y-61136991D01*
X208577475Y-61132375D01*
X208552622Y-61131573D01*
X208514776Y-61133095D01*
X208477574Y-61138561D01*
X208443436Y-61149461D01*
X208419949Y-61163374D01*
X208395153Y-61189620D01*
X208381206Y-61223751D01*
X208379258Y-61244584D01*
X208284107Y-61244584D01*
X208284183Y-61243776D01*
X208294393Y-61209615D01*
X208311410Y-61177663D01*
X208335234Y-61147919D01*
X208351903Y-61131915D01*
X208094764Y-61131915D01*
X208094764Y-60996849D01*
X208806000Y-60996849D01*
X208806000Y-61122341D01*
G37*
G36*
X207110116Y-62777221D02*
G01*
X207142120Y-62791032D01*
X207157827Y-62804817D01*
X207176314Y-62835484D01*
X207177618Y-62839250D01*
X207184045Y-62874338D01*
X207186411Y-62909408D01*
X207187085Y-62947983D01*
X207187085Y-63025945D01*
X206990127Y-63025945D01*
X206990127Y-62957215D01*
X206990356Y-62926018D01*
X206991478Y-62889994D01*
X206994914Y-62854804D01*
X207004742Y-62824934D01*
X207025689Y-62797529D01*
X207053600Y-62780603D01*
X207088093Y-62774961D01*
X207110116Y-62777221D01*
G37*
G36*
X207260062Y-60651562D02*
G01*
X207299512Y-60652712D01*
X207334033Y-60654848D01*
X207368079Y-60658585D01*
X207401994Y-60665362D01*
X207427992Y-60674434D01*
X207456362Y-60695111D01*
X207463020Y-60705092D01*
X207471579Y-60738879D01*
X207470649Y-60750773D01*
X207456704Y-60782477D01*
X207430311Y-60801771D01*
X207396694Y-60813935D01*
X207377117Y-60818177D01*
X207342768Y-60822467D01*
X207304982Y-60824941D01*
X207266850Y-60826111D01*
X207231024Y-60826416D01*
X207202018Y-60826197D01*
X207162576Y-60825047D01*
X207128015Y-60822911D01*
X207093862Y-60819174D01*
X207059712Y-60812397D01*
X207033714Y-60803324D01*
X207005344Y-60782648D01*
X206998686Y-60772667D01*
X206990127Y-60738879D01*
X206991078Y-60726997D01*
X207005344Y-60695453D01*
X207031929Y-60676021D01*
X207065696Y-60663824D01*
X207085209Y-60659582D01*
X207119472Y-60655292D01*
X207157184Y-60652818D01*
X207195251Y-60651648D01*
X207231024Y-60651343D01*
X207260062Y-60651562D01*
G37*
G36*
X207669720Y-63246141D02*
G01*
X206791986Y-63246141D01*
X206791986Y-63168363D01*
X206869764Y-63168363D01*
X207581000Y-63168363D01*
X207581000Y-63025945D01*
X207307448Y-63025945D01*
X207307448Y-62933108D01*
X207306965Y-62893031D01*
X207305517Y-62857323D01*
X207302680Y-62821862D01*
X207297360Y-62785561D01*
X207294382Y-62773840D01*
X207281648Y-62741378D01*
X207264021Y-62711702D01*
X207252118Y-62696450D01*
X207225192Y-62671337D01*
X207194778Y-62651863D01*
X207189184Y-62649006D01*
X207155553Y-62636587D01*
X207120771Y-62630135D01*
X207086041Y-62628269D01*
X207050796Y-62630224D01*
X207014141Y-62637247D01*
X206981355Y-62649378D01*
X206949094Y-62669131D01*
X206933442Y-62682384D01*
X206909853Y-62708681D01*
X206892160Y-62738115D01*
X206880364Y-62770687D01*
X206877311Y-62785188D01*
X206873118Y-62822439D01*
X206871017Y-62861323D01*
X206870023Y-62901554D01*
X206869764Y-62939947D01*
X206869764Y-63025945D01*
X206869764Y-63168363D01*
X206791986Y-63168363D01*
X206791986Y-61954647D01*
X206869764Y-61954647D01*
X206869764Y-62086807D01*
X207350361Y-62086807D01*
X206869764Y-62375233D01*
X206869764Y-62513719D01*
X207581000Y-62513719D01*
X207581000Y-62381559D01*
X207107584Y-62381559D01*
X207581000Y-62097407D01*
X207581000Y-61954647D01*
X206869764Y-61954647D01*
X206791986Y-61954647D01*
X206791986Y-61375743D01*
X207066722Y-61375743D01*
X207066722Y-61510980D01*
X207198027Y-61510980D01*
X207198027Y-61375743D01*
X207449695Y-61375743D01*
X207449695Y-61510980D01*
X207581000Y-61510980D01*
X207581000Y-61375743D01*
X207449695Y-61375743D01*
X207198027Y-61375743D01*
X207066722Y-61375743D01*
X206791986Y-61375743D01*
X206791986Y-60738879D01*
X206869764Y-60738879D01*
X206871530Y-60769781D01*
X206878310Y-60803954D01*
X206892647Y-60839811D01*
X206913905Y-60871348D01*
X206942085Y-60898565D01*
X206972277Y-60918513D01*
X207007928Y-60935080D01*
X207040380Y-60945899D01*
X207076327Y-60954555D01*
X207115767Y-60961046D01*
X207158702Y-60965374D01*
X207193196Y-60967200D01*
X207229656Y-60967808D01*
X207242261Y-60967747D01*
X207278620Y-60966825D01*
X207323700Y-60963876D01*
X207364896Y-60958961D01*
X207402208Y-60952079D01*
X207443385Y-60940712D01*
X207478493Y-60926273D01*
X207512612Y-60904891D01*
X207522218Y-60896850D01*
X207547318Y-60870858D01*
X207566841Y-60842065D01*
X207580786Y-60810470D01*
X207589153Y-60776075D01*
X207591942Y-60738879D01*
X207590176Y-60708027D01*
X207583396Y-60673903D01*
X207569059Y-60638087D01*
X207547801Y-60606574D01*
X207519621Y-60579364D01*
X207489404Y-60559417D01*
X207453678Y-60542850D01*
X207421129Y-60532030D01*
X207385055Y-60523375D01*
X207345454Y-60516884D01*
X207302326Y-60512556D01*
X207267667Y-60510730D01*
X207231024Y-60510122D01*
X207206337Y-60510390D01*
X207170981Y-60511800D01*
X207126961Y-60515558D01*
X207086511Y-60521465D01*
X207049629Y-60529519D01*
X207008547Y-60542607D01*
X206973040Y-60559051D01*
X206943110Y-60578852D01*
X206918184Y-60602085D01*
X206895622Y-60633141D01*
X206880079Y-60668451D01*
X206872343Y-60702102D01*
X206869764Y-60738879D01*
X206791986Y-60738879D01*
X206791986Y-60076542D01*
X206869764Y-60076542D01*
X206869764Y-60186133D01*
X206900411Y-60200110D01*
X206929091Y-60218960D01*
X206955805Y-60242682D01*
X206980553Y-60271277D01*
X206994609Y-60290446D01*
X207014009Y-60320178D01*
X207031287Y-60352248D01*
X207044838Y-60386168D01*
X207176143Y-60386168D01*
X207171546Y-60373706D01*
X207155947Y-60337559D01*
X207137630Y-60303277D01*
X207116597Y-60270857D01*
X207092847Y-60240301D01*
X207066380Y-60211608D01*
X207581000Y-60211608D01*
X207581000Y-60076542D01*
X206869764Y-60076542D01*
X206791986Y-60076542D01*
X206791986Y-59998764D01*
X207669720Y-59998764D01*
X207669720Y-63246141D01*
G37*
D13*
%TO.C,REF\u002A\u002A*%
X206678553Y-69421447D02*
X206678553Y-60278553D01*
X207178553Y-59778553D02*
X210021447Y-59778553D01*
X207178553Y-69921447D02*
X210021447Y-69921447D01*
X210521447Y-69421447D02*
X210521447Y-60278553D01*
D10*
X206825000Y-60020400D02*
X207620000Y-60020400D01*
X207620000Y-59865000D01*
X206825000Y-59865000D01*
X206825000Y-60020400D01*
G36*
X206825000Y-60020400D02*
G01*
X207620000Y-60020400D01*
X207620000Y-59865000D01*
X206825000Y-59865000D01*
X206825000Y-60020400D01*
G37*
D13*
X206678553Y-60278553D02*
G75*
G02*
X207178553Y-59778553I499997J3D01*
G01*
X207178553Y-69921447D02*
G75*
G02*
X206678553Y-69421447I1J500001D01*
G01*
X210021447Y-59778553D02*
G75*
G02*
X210521447Y-60278553I3J-499997D01*
G01*
X210521447Y-69421447D02*
G75*
G02*
X210021447Y-69921447I-500001J1D01*
G01*
%TD*%
D14*
%TO.C,JP_BATT+F1*%
X199500000Y-81750000D03*
X199500000Y-80450000D03*
X199500000Y-79150000D03*
%TD*%
D15*
%TO.C,D19*%
X79509280Y-130530000D03*
D16*
X83909280Y-130530000D03*
%TD*%
D15*
%TO.C,D18*%
X174759280Y-111480000D03*
D16*
X179159280Y-111480000D03*
%TD*%
D17*
%TO.C,SW8*%
X95209280Y-84380000D03*
D18*
X95489280Y-80180000D03*
D19*
X100709280Y-84380000D03*
D18*
X105929280Y-80180000D03*
D17*
X106209280Y-84380000D03*
D20*
X100709280Y-90280000D03*
X95709280Y-88180000D03*
X105709280Y-88180000D03*
%TD*%
D15*
%TO.C,D5*%
X155709280Y-73380000D03*
D16*
X160109280Y-73380000D03*
%TD*%
D21*
%TO.C,U1*%
X188594720Y-58697780D03*
D22*
X188930000Y-58680000D03*
D21*
X188594720Y-61237780D03*
D22*
X188980800Y-61220000D03*
D21*
X188594720Y-63777780D03*
D22*
X188879200Y-63760000D03*
D21*
X188594720Y-66317780D03*
D22*
X188930000Y-66300000D03*
D21*
X188594720Y-68857780D03*
D22*
X188828400Y-68840000D03*
D21*
X188594720Y-71397780D03*
D22*
X188879200Y-71380000D03*
D21*
X188594720Y-73937780D03*
D22*
X188930000Y-73920000D03*
X204424000Y-73920000D03*
D21*
X204759280Y-73937780D03*
D22*
X204373200Y-71380000D03*
D21*
X204759280Y-71397780D03*
D22*
X204322400Y-68840000D03*
D21*
X204759280Y-68857780D03*
D22*
X204424000Y-66300000D03*
D21*
X204759280Y-66317780D03*
D22*
X204373200Y-63760000D03*
D21*
X204759280Y-63777780D03*
D22*
X204474800Y-61220000D03*
D21*
X204759280Y-61237780D03*
D22*
X204424000Y-58680000D03*
D21*
X204759280Y-58697780D03*
%TD*%
D17*
%TO.C,SW19*%
X76159280Y-122480000D03*
D18*
X76439280Y-118280000D03*
D19*
X81659280Y-122480000D03*
D18*
X86879280Y-118280000D03*
D17*
X87159280Y-122480000D03*
D20*
X81659280Y-128380000D03*
X76659280Y-126280000D03*
X86659280Y-126280000D03*
%TD*%
D23*
%TO.C,JPF-2*%
X196112500Y-85230000D03*
D24*
X197562500Y-85230000D03*
%TD*%
D23*
%TO.C,JPF-4*%
X204312500Y-85257500D03*
D24*
X205762500Y-85257500D03*
%TD*%
D15*
%TO.C,D13*%
X79509280Y-111480000D03*
D16*
X83909280Y-111480000D03*
%TD*%
D15*
%TO.C,D24*%
X174759280Y-130530000D03*
D16*
X179159280Y-130530000D03*
%TD*%
D15*
%TO.C,D2*%
X98559280Y-73380000D03*
D16*
X102959280Y-73380000D03*
%TD*%
D17*
%TO.C,SW2*%
X95209280Y-65330000D03*
D18*
X95489280Y-61130000D03*
D19*
X100709280Y-65330000D03*
D18*
X105929280Y-61130000D03*
D17*
X106209280Y-65330000D03*
D20*
X100709280Y-71230000D03*
X95709280Y-69130000D03*
X105709280Y-69130000D03*
%TD*%
D15*
%TO.C,D10*%
X136659280Y-92430000D03*
D16*
X141059280Y-92430000D03*
%TD*%
D25*
%TO.C,REF\u002A\u002A*%
X209050000Y-57500000D03*
%TD*%
D15*
%TO.C,D22*%
X136659280Y-130530000D03*
D16*
X141059280Y-130530000D03*
%TD*%
D15*
%TO.C,D14*%
X98559280Y-111480000D03*
D16*
X102959280Y-111480000D03*
%TD*%
D15*
%TO.C,D17*%
X155709280Y-111480000D03*
D16*
X160109280Y-111480000D03*
%TD*%
D17*
%TO.C,SW3*%
X114259280Y-65330000D03*
D18*
X114539280Y-61130000D03*
D19*
X119759280Y-65330000D03*
D18*
X124979280Y-61130000D03*
D17*
X125259280Y-65330000D03*
D20*
X119759280Y-71230000D03*
X114759280Y-69130000D03*
X124759280Y-69130000D03*
%TD*%
D26*
%TO.C,J3*%
X205009280Y-79430000D03*
D27*
X205009280Y-81430000D03*
%TD*%
D23*
%TO.C,JPF-5*%
X187786320Y-94057500D03*
D24*
X189236320Y-94057500D03*
%TD*%
D25*
%TO.C,REF\u002A\u002A*%
X70470000Y-57500000D03*
%TD*%
D15*
%TO.C,D4*%
X136659280Y-73380000D03*
D16*
X141059280Y-73380000D03*
%TD*%
D17*
%TO.C,SW6*%
X171409280Y-65330000D03*
D18*
X171689280Y-61130000D03*
D19*
X176909280Y-65330000D03*
D18*
X182129280Y-61130000D03*
D17*
X182409280Y-65330000D03*
D20*
X176909280Y-71230000D03*
X171909280Y-69130000D03*
X181909280Y-69130000D03*
%TD*%
D17*
%TO.C,SW7*%
X76159280Y-84380000D03*
D18*
X76439280Y-80180000D03*
D19*
X81659280Y-84380000D03*
D18*
X86879280Y-80180000D03*
D17*
X87159280Y-84380000D03*
D20*
X81659280Y-90280000D03*
X76659280Y-88180000D03*
X86659280Y-88180000D03*
%TD*%
D22*
%TO.C,SW25*%
X175500000Y-52150000D03*
X167100000Y-52150000D03*
D28*
X173300000Y-52150000D03*
X171300000Y-52150000D03*
X169300000Y-52150000D03*
%TD*%
D17*
%TO.C,SW15*%
X114259280Y-103430000D03*
D18*
X114539280Y-99230000D03*
D19*
X119759280Y-103430000D03*
D18*
X124979280Y-99230000D03*
D17*
X125259280Y-103430000D03*
D20*
X119759280Y-109330000D03*
X114759280Y-107230000D03*
X124759280Y-107230000D03*
%TD*%
D17*
%TO.C,SW13*%
X76159280Y-103430000D03*
D18*
X76439280Y-99230000D03*
D19*
X81659280Y-103430000D03*
D18*
X86879280Y-99230000D03*
D17*
X87159280Y-103430000D03*
D20*
X81659280Y-109330000D03*
X76659280Y-107230000D03*
X86659280Y-107230000D03*
%TD*%
D23*
%TO.C,JPF-11*%
X204312500Y-87857500D03*
D24*
X205762500Y-87857500D03*
%TD*%
D15*
%TO.C,D7*%
X79509280Y-92430000D03*
D16*
X83909280Y-92430000D03*
%TD*%
D17*
%TO.C,SW17*%
X152359280Y-103430000D03*
D18*
X152639280Y-99230000D03*
D19*
X157859280Y-103430000D03*
D18*
X163079280Y-99230000D03*
D17*
X163359280Y-103430000D03*
D20*
X157859280Y-109330000D03*
X152859280Y-107230000D03*
X162859280Y-107230000D03*
%TD*%
D15*
%TO.C,D25*%
X158300000Y-49700000D03*
D16*
X158300000Y-54100000D03*
%TD*%
D15*
%TO.C,D11*%
X155709280Y-92430000D03*
D16*
X160109280Y-92430000D03*
%TD*%
D23*
%TO.C,JPF-8*%
X204462500Y-91457500D03*
D24*
X205912500Y-91457500D03*
%TD*%
D17*
%TO.C,SW20*%
X95209280Y-122480000D03*
D18*
X95489280Y-118280000D03*
D19*
X100709280Y-122480000D03*
D18*
X105929280Y-118280000D03*
D17*
X106209280Y-122480000D03*
D20*
X100709280Y-128380000D03*
X95709280Y-126280000D03*
X105709280Y-126280000D03*
%TD*%
D29*
%TO.C,U2*%
X189469280Y-79680000D03*
D30*
X192009280Y-79680000D03*
%TD*%
D31*
%TO.C,SWE2*%
X148800000Y-49800000D03*
X155300000Y-49800000D03*
X148800000Y-54300000D03*
X155300000Y-54300000D03*
%TD*%
D17*
%TO.C,SW4*%
X133309280Y-65330000D03*
D18*
X133589280Y-61130000D03*
D19*
X138809280Y-65330000D03*
D18*
X144029280Y-61130000D03*
D17*
X144309280Y-65330000D03*
D20*
X138809280Y-71230000D03*
X133809280Y-69130000D03*
X143809280Y-69130000D03*
%TD*%
D15*
%TO.C,D8*%
X98559280Y-92430000D03*
D16*
X102959280Y-92430000D03*
%TD*%
D17*
%TO.C,SW23*%
X152359280Y-122480000D03*
D18*
X152639280Y-118280000D03*
D19*
X157859280Y-122480000D03*
D18*
X163079280Y-118280000D03*
D17*
X163359280Y-122480000D03*
D20*
X157859280Y-128380000D03*
X152859280Y-126280000D03*
X162859280Y-126280000D03*
%TD*%
D23*
%TO.C,JPF-7*%
X204462500Y-94082500D03*
D24*
X205912500Y-94082500D03*
%TD*%
D17*
%TO.C,SW18*%
X171409280Y-103430000D03*
D18*
X171689280Y-99230000D03*
D19*
X176909280Y-103430000D03*
D18*
X182129280Y-99230000D03*
D17*
X182409280Y-103430000D03*
D20*
X176909280Y-109330000D03*
X171909280Y-107230000D03*
X181909280Y-107230000D03*
%TD*%
D17*
%TO.C,SW24*%
X171409280Y-122480000D03*
D18*
X171689280Y-118280000D03*
D19*
X176909280Y-122480000D03*
D18*
X182129280Y-118280000D03*
D17*
X182409280Y-122480000D03*
D20*
X176909280Y-128380000D03*
X171909280Y-126280000D03*
X181909280Y-126280000D03*
%TD*%
D15*
%TO.C,D12*%
X174759280Y-92430000D03*
D16*
X179159280Y-92430000D03*
%TD*%
D17*
%TO.C,SW5*%
X152359280Y-65330000D03*
D18*
X152639280Y-61130000D03*
D19*
X157859280Y-65330000D03*
D18*
X163079280Y-61130000D03*
D17*
X163359280Y-65330000D03*
D20*
X157859280Y-71230000D03*
X152859280Y-69130000D03*
X162859280Y-69130000D03*
%TD*%
D17*
%TO.C,SW1*%
X76159280Y-65330000D03*
D18*
X76439280Y-61130000D03*
D19*
X81659280Y-65330000D03*
D18*
X86879280Y-61130000D03*
D17*
X87159280Y-65330000D03*
D20*
X81659280Y-71230000D03*
X76659280Y-69130000D03*
X86659280Y-69130000D03*
%TD*%
D25*
%TO.C,REF\u002A\u002A*%
X186950000Y-133700000D03*
%TD*%
%TO.C,REF\u002A\u002A*%
X209050000Y-133700000D03*
%TD*%
%TO.C,REF\u002A\u002A*%
X180000000Y-50000000D03*
%TD*%
D15*
%TO.C,D9*%
X117609280Y-92430000D03*
D16*
X122009280Y-92430000D03*
%TD*%
D17*
%TO.C,SW10*%
X133309280Y-84380000D03*
D18*
X133589280Y-80180000D03*
D19*
X138809280Y-84380000D03*
D18*
X144029280Y-80180000D03*
D17*
X144309280Y-84380000D03*
D20*
X138809280Y-90280000D03*
X133809280Y-88180000D03*
X143809280Y-88180000D03*
%TD*%
D15*
%TO.C,D23*%
X155709280Y-130530000D03*
D16*
X160109280Y-130530000D03*
%TD*%
D31*
%TO.C,SWE0*%
X127150000Y-49800000D03*
X133650000Y-49800000D03*
X127150000Y-54300000D03*
X133650000Y-54300000D03*
%TD*%
D15*
%TO.C,D16*%
X136659280Y-111480000D03*
D16*
X141059280Y-111480000D03*
%TD*%
D14*
%TO.C,JP_BATT-F1*%
X202150000Y-81750000D03*
X202150000Y-80450000D03*
X202150000Y-79150000D03*
%TD*%
D17*
%TO.C,SW11*%
X152359280Y-84380000D03*
D18*
X152639280Y-80180000D03*
D19*
X157859280Y-84380000D03*
D18*
X163079280Y-80180000D03*
D17*
X163359280Y-84380000D03*
D20*
X157859280Y-90280000D03*
X152859280Y-88180000D03*
X162859280Y-88180000D03*
%TD*%
D15*
%TO.C,D26*%
X160900000Y-49700000D03*
D16*
X160900000Y-54100000D03*
%TD*%
D15*
%TO.C,D1*%
X79509280Y-73380000D03*
D16*
X83909280Y-73380000D03*
%TD*%
D23*
%TO.C,JPF-3*%
X187712500Y-85257500D03*
D24*
X189162500Y-85257500D03*
%TD*%
D23*
%TO.C,JPF-9*%
X196087500Y-91457500D03*
D24*
X197537500Y-91457500D03*
%TD*%
D15*
%TO.C,D15*%
X117609280Y-111480000D03*
D16*
X122009280Y-111480000D03*
%TD*%
D17*
%TO.C,SW12*%
X171409280Y-84380000D03*
D18*
X171689280Y-80180000D03*
D19*
X176909280Y-84380000D03*
D18*
X182129280Y-80180000D03*
D17*
X182409280Y-84380000D03*
D20*
X176909280Y-90280000D03*
X171909280Y-88180000D03*
X181909280Y-88180000D03*
%TD*%
D15*
%TO.C,D21*%
X117609280Y-130530000D03*
D16*
X122009280Y-130530000D03*
%TD*%
D23*
%TO.C,JPF-6*%
X196087500Y-94082500D03*
D24*
X197537500Y-94082500D03*
%TD*%
D25*
%TO.C,REF\u002A\u002A*%
X70460000Y-133700000D03*
%TD*%
D15*
%TO.C,D3*%
X117609280Y-73380000D03*
D16*
X122009280Y-73380000D03*
%TD*%
D31*
%TO.C,SWE1*%
X138000000Y-49800000D03*
X144500000Y-49800000D03*
X138000000Y-54300000D03*
X144500000Y-54300000D03*
%TD*%
D17*
%TO.C,SW9*%
X114259280Y-84380000D03*
D18*
X114539280Y-80180000D03*
D19*
X119759280Y-84380000D03*
D18*
X124979280Y-80180000D03*
D17*
X125259280Y-84380000D03*
D20*
X119759280Y-90280000D03*
X114759280Y-88180000D03*
X124759280Y-88180000D03*
%TD*%
D23*
%TO.C,JPF-13*%
X196112500Y-87835000D03*
D24*
X197562500Y-87835000D03*
%TD*%
D17*
%TO.C,SW22*%
X133309280Y-122480000D03*
D18*
X133589280Y-118280000D03*
D19*
X138809280Y-122480000D03*
D18*
X144029280Y-118280000D03*
D17*
X144309280Y-122480000D03*
D20*
X138809280Y-128380000D03*
X133809280Y-126280000D03*
X143809280Y-126280000D03*
%TD*%
D23*
%TO.C,JPF-1*%
X187737500Y-87882500D03*
D24*
X189187500Y-87882500D03*
%TD*%
D15*
%TO.C,D6*%
X174759280Y-73380000D03*
D16*
X179159280Y-73380000D03*
%TD*%
D15*
%TO.C,D27*%
X163500000Y-49700000D03*
D16*
X163500000Y-54100000D03*
%TD*%
D17*
%TO.C,SW14*%
X95209280Y-103430000D03*
D18*
X95489280Y-99230000D03*
D19*
X100709280Y-103430000D03*
D18*
X105929280Y-99230000D03*
D17*
X106209280Y-103430000D03*
D20*
X100709280Y-109330000D03*
X95709280Y-107230000D03*
X105709280Y-107230000D03*
%TD*%
D15*
%TO.C,D20*%
X98559280Y-130530000D03*
D16*
X102959280Y-130530000D03*
%TD*%
D17*
%TO.C,SW21*%
X114259280Y-122480000D03*
D18*
X114539280Y-118280000D03*
D19*
X119759280Y-122480000D03*
D18*
X124979280Y-118280000D03*
D17*
X125259280Y-122480000D03*
D20*
X119759280Y-128380000D03*
X114759280Y-126280000D03*
X124759280Y-126280000D03*
%TD*%
D23*
%TO.C,JPF-10*%
X187786320Y-91457500D03*
D24*
X189236320Y-91457500D03*
%TD*%
D25*
%TO.C,REF\u002A\u002A*%
X123580000Y-50030000D03*
%TD*%
D17*
%TO.C,SW16*%
X133309280Y-103430000D03*
D18*
X133589280Y-99230000D03*
D19*
X138809280Y-103430000D03*
D18*
X144029280Y-99230000D03*
D17*
X144309280Y-103430000D03*
D20*
X138809280Y-109330000D03*
X133809280Y-107230000D03*
X143809280Y-107230000D03*
%TD*%
M02*
